<?xml version="1.0" encoding="UTF-8"?>
<svg width="16px" height="16px" viewBox="0 0 16 16" version="1.1" xmlns="http://www.w3.org/2000/svg" xmlns:xlink="http://www.w3.org/1999/xlink">
    <!-- Generator: Sketch 52.6 (67491) - http://www.bohemiancoding.com/sketch -->
    <title>Adobe-XD-logo</title>
    <desc>Created with Sketch.</desc>
    <g id="V2" stroke="none" stroke-width="1" fill="none" fill-rule="evenodd">
        <g id="landing-page" transform="translate(-1232.000000, -345.000000)">
            <g id="Group-15" transform="translate(979.000000, 333.000000)">
                <g id="Group-14" transform="translate(241.000000, 0.000000)">
                    <g id="Adobe-XD-logo" transform="translate(12.000000, 12.000000)">
                        <path d="M13.1666667,16 L2.83333333,16 C1.26666667,16 0,14.7008547 0,13.0940171 L0,2.90598291 C0,1.2991453 1.26666667,0 2.83333333,0 L13.1666667,0 C14.7333333,0 16,1.2991453 16,2.90598291 L16,13.0940171 C16,14.7008547 14.7333333,16 13.1666667,16 Z" id="Path" fill="#FF26BE"></path>
                        <path d="M12.9133333,15.3162393 L3.08666667,15.3162393 C1.75333333,15.3162393 0.666666667,14.2017094 0.666666667,12.834188 L0.666666667,3.16581197 C0.666666667,1.7982906 1.75333333,0.683760684 3.08666667,0.683760684 L12.9066667,0.683760684 C14.2466667,0.683760684 15.3266667,1.7982906 15.3266667,3.16581197 L15.3266667,12.8273504 C15.3333333,14.2017094 14.2466667,15.3162393 12.9133333,15.3162393 Z" id="Path" fill="#2E001F"></path>
                        <path d="M6.32666667,7.48717949 L8.19333333,11.165812 C8.22666667,11.2205128 8.20666667,11.2752137 8.15333333,11.2752137 L6.99333333,11.2752137 C6.92,11.2752137 6.88666667,11.2547009 6.85333333,11.1863248 C6.42666667,10.2837607 5.99333333,9.38119658 5.54666667,8.41025641 L5.53333333,8.41025641 C5.13333333,9.32649573 4.69333333,10.2905983 4.26666667,11.1931624 C4.23333333,11.2478632 4.2,11.2683761 4.14666667,11.2683761 L3.04666667,11.2683761 C2.98,11.2683761 2.97333333,11.2136752 3.00666667,11.1726496 L4.83333333,7.6034188 L3.06666667,3.99316239 C3.02666667,3.93846154 3.06666667,3.8974359 3.10666667,3.8974359 L4.25333333,3.8974359 C4.32,3.8974359 4.34666667,3.91111111 4.37333333,3.97264957 C4.79333333,4.87521368 5.22,5.80512821 5.62,6.71452991 L5.63333333,6.71452991 C6.02,5.81196581 6.44666667,4.87521368 6.86,3.97948718 C6.89333333,3.92478632 6.91333333,3.89059829 6.98,3.89059829 L8.05333333,3.89059829 C8.10666667,3.89059829 8.12666667,3.93162393 8.09333333,3.98632479 L6.32666667,7.48717949 Z M8.52,8.6017094 C8.52,7.00854701 9.55333333,5.76410256 11.1933333,5.76410256 C11.3333333,5.76410256 11.4066667,5.76410256 11.54,5.77777778 L11.54,3.96581197 C11.54,3.92478632 11.5733333,3.8974359 11.6066667,3.8974359 L12.66,3.8974359 C12.7133333,3.8974359 12.7266667,3.91794872 12.7266667,3.95213675 L12.7266667,10.2290598 C12.7266667,10.4136752 12.7266667,10.6461538 12.76,10.8991453 C12.76,10.9401709 12.7466667,10.9538462 12.7066667,10.974359 C12.1466667,11.2478632 11.56,11.3709402 11,11.3709402 C9.55333333,11.3777778 8.52,10.4615385 8.52,8.6017094 Z M11.54,6.85128205 C11.4466667,6.81025641 11.3133333,6.78290598 11.1533333,6.78290598 C10.3133333,6.78290598 9.72666667,7.44615385 9.72666667,8.54700855 C9.72666667,9.80512821 10.3266667,10.3111111 11.08,10.3111111 C11.24,10.3111111 11.4133333,10.2905983 11.54,10.2358974 L11.54,6.85128205 Z" id="Shape" fill="#FFD9F2" fill-rule="nonzero"></path>
                    </g>
                </g>
            </g>
        </g>
    </g>
</svg>