<?xml version="1.0" encoding="UTF-8"?>
<svg width="19px" height="12px" viewBox="0 0 19 12" version="1.1" xmlns="http://www.w3.org/2000/svg" xmlns:xlink="http://www.w3.org/1999/xlink">
    <!-- Generator: Sketch 52.6 (67491) - http://www.bohemiancoding.com/sketch -->
    <title>behance-logo</title>
    <desc>Created with Sketch.</desc>
    <g id="V2" stroke="none" stroke-width="1" fill="none" fill-rule="evenodd">
        <g id="landing-page" transform="translate(-1298.000000, -1491.000000)" fill="#7D7A9E">
            <g id="Group-3" transform="translate(0.000000, 1472.000000)">
                <g id="behance-logo" transform="translate(1298.000000, 19.000000)">
                    <path d="M7.4106,5.35916129 C7.4106,5.35916129 9.14805833,5.22890323 9.14805833,3.17090323 C9.14805833,1.11309677 7.72646667,0.10916129 5.92556667,0.10916129 L2.61088333,0.10916129 L2.51351667,0.10916129 L0,0.10916129 L0,11.6086452 L2.51351667,11.6086452 L2.61088333,11.6086452 L5.92556667,11.6086452 C5.92556667,11.6086452 9.54289167,11.7241935 9.54289167,8.21458065 C9.54308333,8.21458065 9.700825,5.35916129 7.4106,5.35916129 Z M2.61088333,2.15322581 L5.49910833,2.15322581 L5.92575833,2.15322581 C5.92575833,2.15322581 6.73133333,2.15322581 6.73133333,3.34954839 C6.73133333,4.54587097 6.25734167,4.71929032 5.72029167,4.71929032 L2.61088333,4.71929032 L2.61088333,2.15322581 Z M5.77280833,9.56516129 L2.61088333,9.56516129 L2.61088333,6.49180083 L5.92556667,6.49180645 C5.92556667,6.49180645 7.12616667,6.47632258 7.12616667,8.07116129 C7.12616667,9.40103226 6.24814167,9.55180645 5.77280833,9.56516129 Z" id="Shape" fill-rule="nonzero"></path>
                    <rect id="Rectangle" x="11.9178333" y="0.786580645" width="4.69851667" height="1.41619355"></rect>
                    <path d="M14.367525,3.03522581 C9.98827268,3.03522581 9.99215833,7.45316129 9.99215833,7.45316129 C9.99215833,7.45316129 9.69200833,11.8492258 14.3677167,11.8492258 C14.3677167,11.8492258 18.2644917,12.074129 18.2644917,8.79096774 L16.260425,8.79096774 C16.260425,8.79096774 16.3273167,10.0279355 14.4346083,10.0279355 C14.4346083,10.0279355 12.4307333,10.1632258 12.4307333,8.02664516 L18.3311917,8.02664516 C18.3311917,8.02664516 18.976725,3.03522581 14.367525,3.03522581 Z M16.1488821,6.49180645 L12.4081167,6.49180645 C12.4081167,6.49180645 12.652875,4.71929032 14.4119917,4.71929032 C16.1713,4.71909677 16.1488821,6.49180645 16.1488821,6.49180645 Z" id="Shape" fill-rule="nonzero"></path>
                </g>
            </g>
        </g>
    </g>
</svg>