<?xml version="1.0" encoding="UTF-8"?>
<svg width="35px" height="35px" viewBox="0 0 35 35" version="1.1" xmlns="http://www.w3.org/2000/svg" xmlns:xlink="http://www.w3.org/1999/xlink">
    <!-- Generator: Sketch 52.6 (67491) - http://www.bohemiancoding.com/sketch -->
    <title>linkedin-icon</title>
    <desc>Created with Sketch.</desc>
    <g id="Main-Mockups" stroke="none" stroke-width="1" fill="none" fill-rule="evenodd">
        <g id="selected-design-share" transform="translate(-988.000000, -387.000000)" fill="#2767B2" fill-rule="nonzero">
            <g id="Group-19" transform="translate(316.000000, 240.000000)">
                <g id="Group-14" transform="translate(648.000000, 123.000000)">
                    <path d="M26.5929127,24 L56.4070873,24 C57.8391134,24 59,25.1608866 59,26.5929127 L59,56.4070873 C59,57.8391134 57.8391134,59 56.4070873,59 L26.5929127,59 C25.1608866,59 24,57.8391134 24,56.4070873 L24,26.5929127 C24,25.1608866 25.1608866,24 26.5929127,24 Z M34.9147238,37.4802434 L29.6367041,37.4802434 L29.6367041,53.3563319 L34.9147238,53.3563319 L34.9147238,37.4802434 Z M35.1784527,32.6224368 C35.1452715,31.0629213 34.033702,29.8772472 32.2275398,29.8772472 C30.4235897,29.8772472 29.2434457,31.0629213 29.2434457,32.6224368 C29.2434457,34.1432409 30.3881964,35.3643083 32.1589654,35.3643083 L32.1932526,35.3643083 C34.033702,35.3643083 35.1784527,34.1432409 35.1784527,32.6224368 Z M53.8735077,44.230893 C53.8735077,39.3554717 51.2687851,37.086985 47.7969277,37.086985 C44.9975421,37.086985 43.7443996,38.6254857 43.0398525,39.7060861 L43.0398525,37.4586142 L37.7640449,37.4586142 C37.8315133,38.9473432 37.7640449,53.3347027 37.7640449,53.3347027 L43.0398525,53.3347027 L43.0398525,44.4686915 C43.0398525,43.9886704 43.0741397,43.5230279 43.2135007,43.1812617 C43.5961903,42.2367041 44.4655372,41.250117 45.921085,41.250117 C47.833427,41.250117 48.5954881,42.7034527 48.5954881,44.8403207 L48.5954881,53.3347027 L53.8724017,53.3347027 L53.8735077,44.230893 Z" id="linkedin-icon"></path>
                </g>
            </g>
        </g>
    </g>
</svg>