<?xml version="1.0" encoding="UTF-8"?>
<svg width="120px" height="120px" viewBox="0 0 120 120" version="1.1" xmlns="http://www.w3.org/2000/svg" xmlns:xlink="http://www.w3.org/1999/xlink">
    <!-- Generator: Sketch 52.6 (67491) - http://www.bohemiancoding.com/sketch -->
    <title>message-sent-error-icon</title>
    <desc>Created with Sketch.</desc>
    <defs>
        <linearGradient x1="0%" y1="20.1506654%" x2="87.9394932%" y2="82.3847073%" id="linearGradient-1">
            <stop stop-color="#FFCB86" offset="0%"></stop>
            <stop stop-color="#FFCC4E" offset="100%"></stop>
        </linearGradient>
    </defs>
    <g id="Main-Mockups" stroke="none" stroke-width="1" fill="none" fill-rule="evenodd">
        <g id="contact-success-copy" transform="translate(-660.000000, -215.000000)">
            <g id="message-sent-error-icon" transform="translate(660.000000, 215.000000)">
                <circle id="Oval" fill="url(#linearGradient-1)" cx="60" cy="60" r="60"></circle>
                <g id="Group-2" transform="translate(7.000000, 34.000000)">
                    <path d="M105.283886,11.0804639 L105.283886,54.9762637 C96.5,73 77.5120003,86 53.0006425,86 C28.4892848,86 8.93243056,72.5 0.717613147,54.9762637 L0.717613147,11.0804639 C0.717613147,6.3532373 3.71406923,2.32269043 7.92572737,0.753674316 C9.14092942,0.30083252 10.4589332,0.0523217773 11.8351913,0.0523217773 L94.1660937,0.0523217773 C95.5423518,0.0523217773 96.8582139,0.30083252 98.0755577,0.753674316 C102.287216,2.32269043 105.283886,6.3532373 105.283886,11.0804639 Z" id="Path" fill="#F7F7FC"></path>
                    <g id="Group" transform="translate(0.528287, 7.080078)" fill="#EBEBF2">
                        <path d="M94.8596484,59.1300513 C93.5101616,60.7591772 92.0668683,62.3082275 90.5383351,63.7708301 L52.4723559,41.2238965 L14.4042349,63.7706177 C12.8757018,62.3058911 11.4324084,60.7566284 10.0829216,59.1277148 L46.3922764,37.6241016 L58.5505078,37.6241016 L94.8596484,59.1300513 Z" id="Path"></path>
                        <path d="M88.1389857,0.174169922 L100.874834,0.174169922 C103.017822,0.174169922 104.754957,1.89717773 104.754957,4.02226318 L104.754957,5.65160156 C104.754957,9.53261719 102.697423,13.1279517 99.3377344,15.1179492 L54.5665127,47.1843311 C53.2761369,47.9487671 51.6668615,47.9487671 50.3764857,47.1843311 L5.60547818,15.1179492 C2.24557516,13.1279517 0.188255657,9.53261719 0.188255657,5.65160156 L0.188255657,4.02226318 C0.188255657,1.89696533 1.9256048,0.174169922 4.06837823,0.174169922 L16.8042268,0.174169922" id="Path"></path>
                    </g>
                    <path d="M88.6672724,0.0525341797 L94.1654512,0.0525341797 C100.305713,0.0525341797 105.283458,4.98918945 105.283458,11.0787646 C105.283458,14.9597803 103.225924,18.5551147 99.8662352,20.5451123 L55.0947993,47.0626953 C53.8044235,47.8271313 52.1951482,47.8271313 50.9047724,47.0626953 L6.13376482,20.5453247 C2.7738618,18.5553271 0.716542295,14.9599927 0.716542295,11.0789771 C0.716542295,4.98940186 5.69428745,0.052746582 11.8345488,0.052746582 L17.3327276,0.052746582" id="Path" fill="#FFFFFF"></path>
                </g>
                <circle id="Oval" fill="#F14881" cx="90.4898437" cy="29.5101562" r="29.5101562"></circle>
                <g id="Group" transform="translate(75.468750, 14.531250)" fill="#FFFFFF">
                    <path d="M1.34109375,28.6589063 C-0.380390625,26.9374219 -0.380390625,24.1464844 1.34109375,22.4247656 L22.4676562,1.29820313 C24.1891406,-0.42328125 26.9800781,-0.42328125 28.7017969,1.29820313 C30.4232812,3.0196875 30.4232812,5.810625 28.7017969,7.53234375 L7.57523437,28.6589063 C5.85375,30.3803906 3.06257813,30.3803906 1.34109375,28.6589063 Z" id="Path"></path>
                    <path d="M1.34109375,1.29820313 C3.06257813,-0.42328125 5.85351562,-0.42328125 7.57523437,1.29820313 L28.7017969,22.4247656 C30.4232812,24.14625 30.4232812,26.9371875 28.7017969,28.6589063 C26.9803125,30.3803906 24.189375,30.3803906 22.4676562,28.6589063 L1.34109375,7.53234375 C-0.380390625,5.81085938 -0.380390625,3.01992188 1.34109375,1.29820313 Z" id="Path"></path>
                </g>
            </g>
        </g>
    </g>
</svg>