<?xml version="1.0" encoding="UTF-8"?>
<svg width="54px" height="55px" viewBox="0 0 54 55" version="1.1" xmlns="http://www.w3.org/2000/svg" xmlns:xlink="http://www.w3.org/1999/xlink">
    <!-- Generator: Sketch 52.6 (67491) - http://www.bohemiancoding.com/sketch -->
    <title>not-okay-icon</title>
    <desc>Created with Sketch.</desc>
    <defs>
        <linearGradient x1="13.9161719%" y1="17.0136726%" x2="88.4450952%" y2="84.2347486%" id="linearGradient-1">
            <stop stop-color="#F073C8" offset="0%"></stop>
            <stop stop-color="#FF6A95" offset="100%"></stop>
        </linearGradient>
        <path d="M30.7034218,20.2296676 L20.6028907,27.1407547 L14.5565782,31.1728516 C13.8604843,31.6377869 12.9226563,31.4447632 12.461125,30.7431641 L0.6570625,12.7936401 C0.195953152,12.0903625 0.3870625,11.1458053 1.08442185,10.6800308 L7.0121875,6.72724154 L15.8141875,0.92813876 C23.6990313,4.23849487 29.4972813,11.5008011 30.7021563,20.2191772 C30.7021563,20.2229538 30.7034218,20.2263107 30.7034218,20.2296676 Z" id="path-2"></path>
        <path d="M1.08442185,10.6804504 L7.01176565,6.72682195 L20.6028907,27.1407547 L14.557,31.1732712 C13.8609063,31.6377869 12.9218125,31.4451828 12.4607032,30.7427445 L0.656640652,12.7932205 C0.195531304,12.0907821 0.3870625,11.1462249 1.08442185,10.6804504 Z" id="path-4"></path>
        <filter x="-86.6%" y="-62.8%" width="273.3%" height="241.7%" filterUnits="objectBoundingBox" id="filter-5">
            <feOffset dx="0" dy="2" in="SourceAlpha" result="shadowOffsetOuter1"></feOffset>
            <feGaussianBlur stdDeviation="5.5" in="shadowOffsetOuter1" result="shadowBlurOuter1"></feGaussianBlur>
            <feColorMatrix values="0 0 0 0 0.73229828   0 0 0 0 0.724642558   0 0 0 0 0.820339073  0 0 0 1 0" type="matrix" in="shadowBlurOuter1"></feColorMatrix>
        </filter>
    </defs>
    <g id="Main-Mockups" stroke="none" stroke-width="1" fill="none" fill-rule="evenodd">
        <g id="License" transform="translate(-118.000000, -671.000000)">
            <g id="Group-6" transform="translate(118.000000, 671.000000)">
                <g id="not-okay-icon">
                    <path d="M53.9346093,24.600029 C53.9346093,38.188057 42.8608125,49.2021561 29.2009218,49.2021561 C15.5422968,49.2021561 4.4676563,38.188057 4.4676563,24.600029 C4.4676563,11.0132599 15.5422968,0 29.2009218,0 C32.551875,0 35.7463125,0.662155098 38.6602032,1.86393732 C38.7120937,1.88491821 38.7635625,1.9058991 38.8141875,1.92813876 C46.6990313,5.23849487 52.4972813,12.5008011 53.7021563,21.2191772 C53.7021563,21.2229538 53.7034218,21.2263107 53.7034218,21.2300872 C53.8557187,22.3311614 53.9346093,23.4565735 53.9346093,24.600029 Z" id="Path" fill="url(#linearGradient-1)"></path>
                    <path d="M53.7034218,21.2296676 C53.7034218,21.2263107 53.7021563,21.2229538 53.7021563,21.2191772 C52.4972813,12.5008011 46.6990313,5.23849487 38.8141875,1.92771906 C38.7635625,1.9054794 38.7120937,1.88491821 38.6602032,1.86351773 C35.7463125,0.662155098 32.551875,0 29.2009218,0 C27.7813125,0 26.3899687,0.120849609 25.0353282,0.349121094 C26.8755468,0.660057041 28.6465782,1.17156982 30.3247968,1.86351773 C30.3762657,1.88491821 30.4281563,1.9054794 30.4783593,1.92771906 C38.3632032,5.23849487 44.161875,12.5008011 45.3663282,21.2191772 C45.3663282,21.2229538 45.3675937,21.2263107 45.3675937,21.2296676 C45.5203125,22.3311614 45.5987813,23.4565735 45.5987813,24.600029 C45.5987813,36.7747879 36.7086093,46.8816757 25.0332187,48.8526154 C26.3887032,49.0813065 27.7804687,49.2021561 29.2009218,49.2021561 C42.8612343,49.2021561 53.9346093,38.1876374 53.9346093,24.600029 C53.9346093,23.4565735 53.8557187,22.3311614 53.7034218,21.2296676 Z" id="Path" fill="#ED536D" opacity="0.69687035"></path>
                    <path d="M1.48120315,26.7551803 L15.5321718,17.3843002 C16.5328593,16.7162704 17.7453282,16.4514924 18.9307968,16.6419983 C20.1187968,16.8325042 21.3346407,16.5715027 22.3378593,15.902214 L24.2185782,14.6471404 L34.749,30.2807999 L32.1654375,41.521492 C31.964625,42.3968124 31.8654843,43.2838822 31.8654843,44.1671753 C31.8654843,46.4528275 32.5290937,48.7091064 33.8018907,50.6452179 C34.1149218,51.1219025 34.2646875,51.6602707 34.2646875,52.1923446 C34.2646875,53.1016541 33.8263593,53.9933395 33.0172032,54.5329666 C31.9262343,55.2614212 30.4804687,55.125885 29.541375,54.2086029 L27.867375,52.5758744 C25.9533282,50.7052231 24.4767657,48.4279632 23.5494843,45.9094238 L22.6420313,43.4487915 L13.2953907,49.6679306 C11.8027968,50.6632614 9.7832813,50.2276993 8.83026565,48.6881257 C7.911,47.2047806 8.38307815,45.244751 9.831375,44.279213 C9.84867185,44.2674637 9.8499375,44.2485809 9.8440313,44.234314 C9.83601565,44.2192078 9.81829685,44.2082977 9.7984687,44.2166901 C9.42932815,44.360199 9.04289065,44.4298553 8.65982815,44.4298553 C8.0476875,44.4298553 7.44145315,44.2519378 6.9229687,43.9145661 C6.56564065,43.6816788 6.24923435,43.3724212 5.9990625,42.9922485 C5.51685935,42.258339 5.373,41.3972855 5.5307813,40.597496 C5.77842185,39.3361283 6.6884063,38.6869812 6.86685935,38.5644531 C6.89723435,38.5434723 6.90567185,38.501091 6.88457815,38.4692001 C6.88457815,38.4679412 6.8833125,38.4671021 6.88204685,38.4671021 C6.8622187,38.4385681 6.82129685,38.4305954 6.7921875,38.4494782 C6.537375,38.5115814 6.2783437,38.5409546 6.01889065,38.5409546 C5.3856563,38.5409546 4.7562187,38.3600998 4.2212813,38.0164338 C3.8593125,37.7835465 3.53910935,37.4751282 3.2914687,37.0978927 C2.31989065,35.6204224 2.72151565,33.6289216 4.18964065,32.6499557 C4.22592185,32.6251984 4.26220315,32.600441 4.29848435,32.5769425 C4.31957815,32.5605774 4.32548435,32.5337219 4.3149375,32.5148392 C4.3124063,32.5102234 4.30776565,32.505188 4.303125,32.5030899 C4.28667185,32.4900818 4.2609375,32.4888229 4.2398437,32.505188 C3.32775,32.818222 2.33507815,32.675972 1.53604685,32.154808 C1.16817185,31.917305 0.842484348,31.5971375 0.584296848,31.2043762 C-0.387703152,29.7252274 0.013921848,27.7337265 1.48120315,26.7551803 Z" id="Path" fill="#FDD7BD"></path>
                    <g id="Path" transform="translate(23.000000, 1.000000)">
                        <mask id="mask-3" fill="white">
                            <use xlink:href="#path-2"></use>
                        </mask>
                        <use id="Mask" fill="#EBEBF2" xlink:href="#path-2"></use>
                        <g mask="url(#mask-3)">
                            <use fill="black" fill-opacity="1" filter="url(#filter-5)" xlink:href="#path-4"></use>
                            <use fill="#F7F7FC" fill-rule="evenodd" xlink:href="#path-4"></use>
                        </g>
                    </g>
                    <g id="Group" transform="translate(1.512000, 29.755859)" fill="#FAC5AA">
                        <path d="M5.4109687,14.1587067 L10.0861875,11.6389084 C10.7497968,11.2822342 11.5720313,11.4681243 12.018375,12.0765686 L8.3320313,14.4784546 C8.3235937,14.4633484 8.30629685,14.4524383 8.2864687,14.4608307 C7.91732815,14.6043396 7.53089065,14.6739959 7.14782815,14.6739959 C6.5356875,14.6735763 5.92945315,14.4960784 5.4109687,14.1587067 Z" id="Path"></path>
                        <path d="M2.7092813,8.2601547 L7.28325,5.79700473 C7.9464375,5.4394913 8.76867185,5.62538152 9.21501565,6.23340609 L5.52867185,8.63571167 L5.37004685,8.71082309 C5.3502187,8.68270874 5.30929685,8.67431641 5.27976565,8.69319913 C5.025375,8.75572199 4.76592185,8.78509521 4.50689065,8.78509521 C3.8736563,8.78509521 3.2442187,8.6038208 2.7092813,8.2601547 Z" id="Path"></path>
                        <path d="M0.024046848,2.39852905 L4.0525313,0.228271484 C4.714875,-0.127983066 5.53710935,0.0574874609 5.98429685,0.665931729 L2.791125,2.74681086 C2.77467185,2.73380282 2.7489375,2.73296354 2.7278437,2.74932861 C1.81575,3.06194303 0.823078152,2.91969305 0.024046848,2.39852905 Z" id="Path"></path>
                    </g>
                </g>
            </g>
        </g>
    </g>
</svg>