<?xml version="1.0" encoding="UTF-8"?>
<svg width="17px" height="16px" viewBox="0 0 17 16" version="1.1" xmlns="http://www.w3.org/2000/svg" xmlns:xlink="http://www.w3.org/1999/xlink">
    <!-- Generator: Sketch 52.6 (67491) - http://www.bohemiancoding.com/sketch -->
    <title>photoshop-logo</title>
    <desc>Created with Sketch.</desc>
    <g id="V2" stroke="none" stroke-width="1" fill="none" fill-rule="evenodd">
        <g id="landing-page" transform="translate(-1088.000000, -345.000000)">
            <g id="Group-15" transform="translate(979.000000, 333.000000)">
                <g id="Group-11" transform="translate(97.000000, 0.000000)">
                    <g id="photoshop-logo" transform="translate(12.000000, 12.000000)">
                        <polygon id="Path" fill="#001D26" points="0.672545561 0.683760684 15.4685479 0.683760684 15.4685479 15.3162393 0.672545561 15.3162393"></polygon>
                        <path d="M0,0 L0,16 L16.1410935,16 L16.1410935,0 L0,0 Z M0.672545561,0.683760684 L15.4685479,0.683760684 L15.4685479,15.3162393 L0.672545561,15.3162393 L0.672545561,0.683760684 Z M3.90076426,3.74700855 C3.90076426,3.6991453 3.99492063,3.66495726 4.04872428,3.66495726 C4.47915344,3.64444444 5.11807172,3.63076923 5.78389183,3.63076923 C7.64684303,3.63076923 8.37319224,4.67008547 8.37319224,6.0034188 C8.37319224,7.74017094 7.13570841,8.48547009 5.61575544,8.48547009 C5.36018812,8.48547009 5.2727572,8.47179487 5.0911699,8.47179487 L5.0911699,11.0974359 C5.0911699,11.1521368 5.07099353,11.1794872 5.01046443,11.1794872 L3.98146972,11.1794872 C3.92766608,11.1794872 3.90076426,11.1589744 3.90076426,11.0974359 L3.90076426,3.74700855 Z M5.09789536,7.37777778 C5.25258083,7.39145299 5.37363904,7.39145299 5.64265726,7.39145299 C6.42953557,7.39145299 7.16933568,7.11111111 7.16933568,6.02393162 C7.16933568,5.15555556 6.63802469,4.71794872 5.74353909,4.71794872 C5.47452087,4.71794872 5.21895356,4.73162393 5.09789536,4.73846154 L5.09789536,7.37777778 Z M10.8817872,6.56410256 C10.3504762,6.56410256 10.1688889,6.83760684 10.1688889,7.06324786 C10.1688889,7.30940171 10.2899471,7.48034188 11.0028454,7.85641026 C12.0587419,8.37606838 12.3882892,8.87521368 12.3882892,9.60683761 C12.3882892,10.7008547 11.5677837,11.2888889 10.4580835,11.2888889 C9.87296884,11.2888889 9.36855967,11.165812 9.07936508,10.9948718 C9.03228689,10.974359 9.02556143,10.9401709 9.02556143,10.8854701 L9.02556143,9.88034188 C9.02556143,9.81196581 9.05918871,9.79145299 9.1062669,9.82564103 C9.52997061,10.1059829 10.0142034,10.2290598 10.4580835,10.2290598 C10.9893945,10.2290598 11.2113345,10.0034188 11.2113345,9.6957265 C11.2113345,9.44957265 11.056649,9.23076923 10.377378,8.87521368 C9.42236332,8.41025641 9.02556143,7.93846154 9.02556143,7.15213675 C9.02556143,6.27008547 9.70483245,5.53846154 10.8817872,5.53846154 C11.4601764,5.53846154 11.8637037,5.62735043 12.0856437,5.72991453 C12.1394474,5.76410256 12.1528983,5.81880342 12.1528983,5.86666667 L12.1528983,6.8034188 C12.1528983,6.85811966 12.119271,6.89230769 12.0520165,6.87179487 C11.7560964,6.68034188 11.3189418,6.56410256 10.8817872,6.56410256 Z" id="Shape" fill="#00C8FF" fill-rule="nonzero"></path>
                    </g>
                </g>
            </g>
        </g>
    </g>
</svg>