<?xml version="1.0" encoding="UTF-8"?>
<svg width="35px" height="35px" viewBox="0 0 35 35" version="1.1" xmlns="http://www.w3.org/2000/svg" xmlns:xlink="http://www.w3.org/1999/xlink">
    <!-- Generator: Sketch 52.6 (67491) - http://www.bohemiancoding.com/sketch -->
    <title>pinterest-icon</title>
    <desc>Created with Sketch.</desc>
    <g id="Main-Mockups" stroke="none" stroke-width="1" fill="none" fill-rule="evenodd">
        <g id="selected-design-share" transform="translate(-419.000000, -387.000000)">
            <g id="Group-19" transform="translate(316.000000, 240.000000)">
                <g id="Group-11" transform="translate(79.000000, 123.000000)">
                    <g id="pinterest-icon" transform="translate(24.000000, 24.000000)">
                        <ellipse id="Oval" fill="#FFFFFF" cx="17.5" cy="17.4282787" rx="17.5" ry="17.4282787"></ellipse>
                        <path d="M17.5,0 C7.83539095,0 0,7.80327869 0,17.4282787 C0,24.8155738 4.6090535,31.1270492 11.1193416,33.6659836 C10.9609053,32.2889344 10.8312757,30.1659836 11.1769547,28.6598361 C11.4938272,27.2971311 13.2222222,19.9959016 13.2222222,19.9959016 C13.2222222,19.9959016 12.7037037,18.9487705 12.7037037,17.4139344 C12.7037037,14.9897541 14.1152263,13.182377 15.872428,13.182377 C17.3703704,13.182377 18.090535,14.3012295 18.090535,15.6352459 C18.090535,17.1270492 17.1399177,19.3647541 16.6358025,21.4446721 C16.218107,23.1803279 17.5144033,24.6004098 19.2283951,24.6004098 C22.3395062,24.6004098 24.7304527,21.329918 24.7304527,16.625 C24.7304527,12.4508197 21.7201646,9.53893443 17.4135802,9.53893443 C12.4300412,9.53893443 9.50617284,13.2540984 9.50617284,17.0983607 C9.50617284,18.5901639 10.0823045,20.1967213 10.8024691,21.0717213 C10.9465021,21.2438525 10.9609053,21.4016393 10.9176955,21.5737705 C10.7880658,22.1188525 10.4855967,23.3094262 10.4279835,23.5532787 C10.3559671,23.8688525 10.1687243,23.9405738 9.83744856,23.7827869 C7.64814815,22.7643443 6.27983539,19.5942623 6.27983539,17.0266393 C6.27983539,11.5327869 10.2839506,6.48360656 17.845679,6.48360656 C23.909465,6.48360656 28.6337449,10.7868852 28.6337449,16.5532787 C28.6337449,22.5635246 24.8312757,27.397541 19.5596708,27.397541 C17.7880658,27.397541 16.117284,26.4795082 15.5555556,25.3893443 C15.5555556,25.3893443 14.6769547,28.7172131 14.4609053,29.5348361 C14.0720165,31.0553279 13.0061728,32.9487705 12.2860082,34.1106557 C13.9279835,34.6127049 15.6563786,34.8852459 17.4711934,34.8852459 C27.1358025,34.8852459 34.9711934,27.0819672 34.9711934,17.4569672 C35,7.80327869 27.1646091,0 17.5,0 Z" id="Path" fill="#E60019"></path>
                    </g>
                </g>
            </g>
        </g>
    </g>
</svg>