<?xml version="1.0" encoding="UTF-8"?>
<svg width="130px" height="127px" viewBox="0 0 130 127" version="1.1" xmlns="http://www.w3.org/2000/svg" xmlns:xlink="http://www.w3.org/1999/xlink">
    <!-- Generator: Sketch 63.1 (92452) - https://sketch.com -->
    <title>search-empty-icon</title>
    <desc>Created with Sketch.</desc>
    <defs>
        <linearGradient x1="0%" y1="20.1506654%" x2="87.9394932%" y2="82.3847073%" id="linearGradient-1">
            <stop stop-color="#FFCB86" offset="0%"></stop>
            <stop stop-color="#FFCC4E" offset="100%"></stop>
        </linearGradient>
        <path d="M120,60 C120,76.0408594 113.70375,90.6147656 103.447266,101.377969 C100.094531,104.902031 96.3133594,108.017109 92.191875,110.64 C91.9689844,110.779687 91.7460938,110.919141 91.5232031,111.058828 C89.5223438,112.297969 87.4432031,113.422031 85.2930469,114.42375 C77.6057812,118.001719 69.0367969,120 60,120 C52.6921875,120 45.688125,118.692188 39.2107031,116.299688 C36.9796875,115.476797 34.8124219,114.524062 32.7159375,113.451562 C16.6017187,105.208125 4.704375,89.8921875 1.12171875,71.5982812 C0.671015625,69.3035156 0.350390625,66.9623438 0.1715625,64.5820312 C0.058828125,63.0686719 0,61.5403125 0,60 C0,57.6710156 0.1321875,55.3713281 0.391875,53.1110156 C0.548671875,51.7371094 0.751875,50.3779688 1.00171875,49.0333594 C6.151875,21.1347656 30.6072656,0 60,0 C70.8660938,0 81.05625,2.88726563 89.8457813,7.93710938 C91.0408594,8.62289063 92.2066406,9.35015625 93.3478125,10.1142188 C93.5927344,10.2782813 93.8376562,10.4449219 94.08,10.6139062 C94.0971094,10.62375 94.1167969,10.6359375 94.1339063,10.6507031 C96.0147656,11.9535937 97.8171094,13.3617187 99.5339063,14.8654687 C103.192734,18.07125 106.457109,21.7176563 109.248984,25.719375 C116.025234,35.4367969 120,47.255625 120,60 Z" id="path-2"></path>
        <linearGradient x1="100%" y1="100%" x2="9.39621501%" y2="24.8709726%" id="linearGradient-4">
            <stop stop-color="#E8E8F0" offset="0%"></stop>
            <stop stop-color="#F7F7FC" offset="100%"></stop>
        </linearGradient>
        <linearGradient x1="9.39621501%" y1="24.8709726%" x2="100%" y2="100%" id="linearGradient-5">
            <stop stop-color="#F0E6DD" offset="0%"></stop>
            <stop stop-color="#F7EDDF" offset="100%"></stop>
        </linearGradient>
    </defs>
    <g id="Landing-page" stroke="none" stroke-width="1" fill="none" fill-rule="evenodd">
        <g id="search-empty-state-copy-3" transform="translate(-650.000000, -474.000000)">
            <g id="search-empty-icon" transform="translate(650.000000, 474.000000)">
                <g id="message-sent-icon" transform="translate(10.000000, 7.000000)">
                    <g id="Group-2">
                        <mask id="mask-3" fill="white">
                            <use xlink:href="#path-2"></use>
                        </mask>
                        <use id="Mask" fill="url(#linearGradient-1)" xlink:href="#path-2"></use>
                        <path d="M31,-5 C55.300529,-5 75,14.699471 75,39 C75,48.8012134 71.7953338,57.8539368 66.3766593,65.1675126 L73.068769,72.5995056 L65.6373207,79.2908116 L59.5251991,72.5020713 C51.8439616,79.0485631 41.8834346,83 31,83 C6.69947101,83 -13,63.300529 -13,39 C-13,14.699471 6.69947101,-5 31,-5 Z" id="Combined-Shape" fill="#DDA319" opacity="0.157435826" mask="url(#mask-3)"></path>
                        <g mask="url(#mask-3)" fill-rule="nonzero" id="Path">
                            <g transform="translate(61.999944, 64.999710)">
                                <path d="M48.0000605,38.4549039 L48.0000605,38.4549039 C48.0000605,43.636701 43.6364666,48.0002949 38.4546695,48.0002949 L38.4546695,48.0002949 C35.7274819,48.0002949 33.2728724,46.9092792 31.3636536,45.0002948 L0.818261751,11.7274809 C-0.272753917,10.6364653 -0.272753917,9.00029333 0.818261751,7.90927766 L7.90927766,0.818261751 C9.00029333,-0.272753917 10.6364653,-0.272753917 11.7274809,0.818261751 L45.0000604,31.6367005 C46.9090448,33.2731068 48.0000605,36.0002944 48.0000605,38.4549039 Z" fill="#B06328"></path>
                                <path d="M44.7272479,31.363888 L43.0908416,30.0002942 C44.4544354,31.6367005 45.2726385,33.8184974 45.2726385,36.0002944 L45.2726385,36.0002944 C45.2726385,39.5456852 40.9090446,40.909279 38.4544351,38.4549039 L9.81826211,9.81849648 C8.18185579,8.18209017 5.72724632,8.18209017 4.09107438,9.81849648 L1.36388677,12.5456841 L31.0910755,44.4546697 C32.7274818,46.0910761 34.9092787,47.4546699 37.0910757,47.7274824 C40.0910758,48.0002949 43.0910759,46.9092792 45.0000604,45.0002948 C46.9090448,43.0913103 48.0000605,40.0913102 47.727248,37.0913101 C47.727248,34.9092787 46.3636542,33.0002943 44.7272479,31.363888 Z" fill="#A35425"></path>
                                <path d="M16.6364655,12.5456841 C16.363653,12.5456841 15.8182623,12.5456841 15.5454498,12.2728716 L8.72724644,5.45466819 C8.18185579,4.90927754 8.18185579,4.09107438 8.72724644,3.54568373 C9.27263709,3.00029309 10.0908402,3.00029309 10.6362309,3.54568373 L17.4544343,10.3638871 C17.9998249,10.9092778 17.9998249,11.7274809 17.4544343,12.2728716 C17.4546687,12.5456841 16.9090436,12.5456841 16.6364655,12.5456841 Z" fill="#C97629"></path>
                            </g>
                        </g>
                    </g>
                </g>
                <g id="search-(11)" fill-rule="nonzero">
                    <rect id="Rectangle" fill="#F0F0F6" transform="translate(72.271724, 72.272672) rotate(135.000000) translate(-72.271724, -72.272672) " x="68.4536741" y="66.5455395" width="7.63609895" height="11.4542656"></rect>
                    <path d="M75.000003,75.000003 L76.3635968,76.3635968 L79.0907844,73.6364092 L70.9089872,65.454612 L65.4543776,70.9092216 L69.5453934,75.000003 L69.5453934,75.000003 C71.1817997,73.3635967 73.3635967,73.3635967 75.000003,75.000003 Z" id="Path" fill="#D8D8EB"></path>
                    <path d="M40.908986,0 C18.2728132,0 0,18.2728132 0,40.908986 C0,63.5451588 18.2728132,81.817972 40.908986,81.817972 C63.5451588,81.817972 81.817972,63.5451588 81.817972,40.908986 C81.817972,18.2728132 63.5453932,0 40.908986,0 Z M40.908986,73.6364092 C22.9089853,73.6364092 8.1817972,58.9092211 8.1817972,40.9092204 C8.1817972,22.9092197 22.9089853,8.1817972 40.908986,8.1817972 C58.9089867,8.1817972 73.6361748,22.9089853 73.6361748,40.908986 C73.6361748,58.9089867 58.9089867,73.6364092 40.908986,73.6364092 Z" id="Shape" fill="url(#linearGradient-4)"></path>
                    <circle id="Oval" fill="url(#linearGradient-5)" cx="40.908986" cy="40.908986" r="32.7271888"></circle>
                    <path d="M24.8182041,44.7271893 C26.1817979,34.3635951 34.3635951,26.1817979 44.7271893,24.8182041 L45.0000018,24.8182041 C49.6364082,24.2728135 49.9089864,17.7271882 45.5453924,16.9092194 C42.8182048,16.3638288 40.0907828,16.3638288 37.3635952,16.6364069 C26.7271886,18.2728132 18.2725789,26.7274229 16.908985,37.0910171 C16.3635944,39.8182047 16.6361725,42.8182048 17.1817976,45.2728143 C18.0000007,49.9092207 24.5453916,49.3638301 25.0907822,44.7274237 C24.8182041,45.0000018 24.8182041,44.7271893 24.8182041,44.7271893 Z" id="Path" fill-opacity="0.495274257" fill="#FFFFFF"></path>
                    <path d="M10.9089848,43.636408 C10.9089848,25.6364073 25.6361729,10.9092192 43.6361736,10.9092192 C52.0907833,10.9092192 59.4543774,14.1820316 65.4543776,19.0910164 C59.4543774,12.272813 50.7271895,8.18203158 40.908986,8.18203158 C22.9089853,8.18203158 8.1817972,22.9092197 8.1817972,40.9092204 C8.1817972,50.7274239 12.5453911,59.4546117 19.090782,65.454612 C14.1817972,59.4546117 10.9089848,52.0910177 10.9089848,43.636408 Z" id="Path" fill="#DBDBEB"></path>
                    <path d="M19.5835577,50.1079661 C19.5835577,32.1079654 34.5330615,17.8654453 52.5330623,17.8654453 C60.987672,17.8654453 69.2725802,22 75.2725804,26.9089848 C69.2725802,20.0907814 60.5453923,16 50.7271888,16 C32.7271881,16 18,30.7271881 18,48.7271888 C18,58.5453923 22.3635939,67.2725802 28.9089848,73.2725804 C24,67.2725802 19.5835577,58.5625758 19.5835577,50.1079661 Z" id="Path" fill="#FFFFFF" opacity="0.813290551" transform="translate(46.636290, 44.636290) rotate(171.000000) translate(-46.636290, -44.636290) "></path>
                </g>
            </g>
        </g>
    </g>
</svg>