<?xml version="1.0" encoding="UTF-8"?>
<svg width="20px" height="18px" viewBox="0 0 20 18" version="1.1" xmlns="http://www.w3.org/2000/svg" xmlns:xlink="http://www.w3.org/1999/xlink">
    <!-- Generator: Sketch 52.6 (67491) - http://www.bohemiancoding.com/sketch -->
    <title>sketch-logo</title>
    <desc>Created with Sketch.</desc>
    <g id="V2" stroke="none" stroke-width="1" fill="none" fill-rule="evenodd">
        <g id="landing-page" transform="translate(-1038.000000, -345.000000)">
            <g id="Group-15" transform="translate(979.000000, 333.000000)">
                <g id="Group-7" transform="translate(49.000000, 0.000000)">
                    <g id="sketch-logo" transform="translate(10.000000, 12.000000)">
                        <polygon id="Path" fill="#FDB300" points="4.26666669 0.569840317 9.7777778 0 15.2888889 0.569840317 19.5555556 6.17166036 9.7777778 17.3076923 0 6.17166036"></polygon>
                        <g id="Group" transform="translate(0.000000, 6.230769)">
                            <polygon id="Path" fill="#EA6C00" points="3.95250536 0 9.75807332 11.0741176 0 0"></polygon>
                            <polygon id="Path" fill="#EA6C00" transform="translate(14.637084, 5.537059) scale(-1, 1) translate(-14.637084, -5.537059) " points="13.7105523 0 19.5161202 11.0741176 9.75804692 0"></polygon>
                            <polygon id="Path" fill="#FDAD00" points="3.95250536 0 15.5636413 0 9.75807332 11.0741176"></polygon>
                        </g>
                        <g id="Group">
                            <polygon id="Path" fill="#FDD231" points="9.75807332 0 4.25804851 0.574751666 3.95250536 6.22493095"></polygon>
                            <polygon id="Path" fill="#FDD231" transform="translate(12.660827, 3.112465) scale(-1, 1) translate(-12.660827, -3.112465) " points="15.5636113 0 10.0635865 0.574751666 9.75804334 6.22493095"></polygon>
                            <polygon id="Path" fill="#FDAD00" transform="translate(17.387096, 3.399841) scale(-1, 1) translate(-17.387096, -3.399841) " points="15.2580469 6.22493095 19.5161451 0.574751666 19.2105523 6.22493095"></polygon>
                            <polygon id="Path" fill="#FDAD00" points="0 6.22493095 4.25804851 0.574751666 3.95250536 6.22493095"></polygon>
                            <polygon id="Path" fill="#FEEEB7" points="9.75807332 0 3.95250536 6.22493095 15.5636413 6.22493095"></polygon>
                        </g>
                    </g>
                </g>
            </g>
        </g>
    </g>
</svg>