<?xml version="1.0" encoding="UTF-8"?>
<svg width="25px" height="20px" viewBox="0 0 25 20" version="1.1" xmlns="http://www.w3.org/2000/svg" xmlns:xlink="http://www.w3.org/1999/xlink">
    <!-- Generator: Sketch 52.6 (67491) - http://www.bohemiancoding.com/sketch -->
    <title>twitter-icon</title>
    <desc>Created with Sketch.</desc>
    <g id="Main-Mockups" stroke="none" stroke-width="1" fill="none" fill-rule="evenodd">
        <g id="selected-design-subscribe-copy" transform="translate(-1307.000000, -927.000000)" fill="#03A9F4">
            <g id="Group" transform="translate(1068.000000, 508.000000)">
                <g id="Mask" transform="translate(1.000000, 0.000000)">
                    <g id="Group-13" transform="translate(88.000000, 416.000000)">
                        <g id="twitter-icon" transform="translate(150.000000, 3.000000)">
                            <path d="M25,2.36769231 C24.0703125,2.76923077 23.0796875,3.03538462 22.046875,3.16461538 C23.109375,2.54 23.9203125,1.55846154 24.3015625,0.375384615 C23.3109375,0.956923077 22.2171875,1.36769231 21.0515625,1.59692308 C20.1109375,0.610769231 18.7703125,0 17.3078125,0 C14.4703125,0 12.1859375,2.26769231 12.1859375,5.04769231 C12.1859375,5.44769231 12.2203125,5.83230769 12.3046875,6.19846154 C8.04375,5.99384615 4.2734375,3.98307692 1.740625,0.92 C1.2984375,1.67538462 1.0390625,2.54 1.0390625,3.47076923 C1.0390625,5.21846154 1.953125,6.76769231 3.315625,7.66461538 C2.4921875,7.64923077 1.684375,7.41384615 1,7.04307692 C1,7.05846154 1,7.07846154 1,7.09846154 C1,9.55076923 2.7765625,11.5876923 5.10625,12.0569231 C4.6890625,12.1692308 4.234375,12.2230769 3.7625,12.2230769 C3.434375,12.2230769 3.103125,12.2046154 2.7921875,12.1369231 C3.45625,14.1353846 5.340625,15.6046154 7.58125,15.6523077 C5.8375,16.9953846 3.6234375,17.8046154 1.2265625,17.8046154 C0.80625,17.8046154 0.403125,17.7861538 -5.68434189e-14,17.7353846 C2.2703125,19.1769231 4.9609375,20 7.8625,20 C17.29375,20 22.45,12.3076923 22.45,5.64 C22.45,5.41692308 22.4421875,5.20153846 22.43125,4.98769231 C23.4484375,4.27692308 24.303125,3.38923077 25,2.36769231 Z" id="Path"></path>
                        </g>
                    </g>
                </g>
            </g>
        </g>
    </g>
</svg>