<?xml version="1.0" encoding="UTF-8"?>
<svg width="107px" height="15px" viewBox="0 0 107 15" version="1.1" xmlns="http://www.w3.org/2000/svg" xmlns:xlink="http://www.w3.org/1999/xlink">
    <!-- Generator: Sketch 52.6 (67491) - http://www.bohemiancoding.com/sketch -->
    <title>UIDesignDaily-white</title>
    <desc>Created with Sketch.</desc>
    <g id="Main-Mockups" stroke="none" stroke-width="1" fill="none" fill-rule="evenodd">
        <g id="Upload-" transform="translate(-667.000000, -54.000000)" fill="#F7F7FC">
            <g id="Group-9">
                <path d="M671.761236,65.5923237 C670.195453,65.5923237 669.010481,65.2007301 668.206286,64.4175311 C667.402091,63.6343322 667,62.4854848 667,60.9709544 L667,54.373444 L669.029118,54.373444 L669.029118,61.0798755 C669.029118,62.0342371 669.258123,62.7577776 669.716142,63.2505187 C670.17416,63.7432597 670.855851,63.9896266 671.761236,63.9896266 C672.645318,63.9896266 673.319021,63.7406664 673.782365,63.2427386 C674.245709,62.7448108 674.477378,62.0238636 674.477378,61.0798755 L674.477378,54.373444 L676.506495,54.373444 L676.506495,60.9709544 C676.506495,62.4751113 676.101741,63.6213654 675.29222,64.409751 C674.4827,65.1981367 673.305717,65.5923237 671.761236,65.5923237 Z M678.887114,65.4522822 L678.887114,54.373444 L680.948186,54.373444 L680.948186,65.4522822 L678.887114,65.4522822 Z M683.40869,54.373444 L687.594744,54.373444 C689.458772,54.373444 690.904703,54.8558043 691.932582,55.8205394 C692.96046,56.7852745 693.474392,58.1441821 693.474392,59.8973029 C693.474392,61.6607972 692.96046,63.0274848 691.932582,63.9974066 C690.904703,64.9673285 689.458772,65.4522822 687.594744,65.4522822 L683.40869,65.4522822 L683.40869,54.373444 Z M687.466925,63.8184647 C690.087216,63.8184647 691.397342,62.5114239 691.397342,59.8973029 C691.397342,57.3039289 690.087216,56.0072614 687.466925,56.0072614 L685.469763,56.0072614 L685.469763,63.8184647 L687.466925,63.8184647 Z M702.501568,61.6244813 L696.941466,61.6244813 C696.984073,62.4647345 697.199764,63.0845416 697.588547,63.4839212 C697.97733,63.8833008 698.55517,64.0829876 699.322085,64.0829876 C700.206166,64.0829876 701.026326,63.8029074 701.782589,63.2427386 L702.357772,64.5809129 C701.974315,64.8817442 701.502989,65.1229244 700.943781,65.3044606 C700.384572,65.4859968 699.817384,65.5767635 699.242198,65.5767635 C697.921401,65.5767635 696.882887,65.2136966 696.126624,64.4875519 C695.370361,63.7614072 694.992235,62.7655665 694.992235,61.5 C694.992235,60.7012408 695.157332,59.990667 695.487532,59.3682573 C695.817731,58.7458475 696.281068,58.2608939 696.877557,57.9133817 C697.474046,57.5658696 698.150412,57.3921162 698.906675,57.3921162 C700.01444,57.3921162 700.89052,57.7422164 701.534941,58.4424274 C702.179362,59.1426384 702.501568,60.1047657 702.501568,61.3288382 L702.501568,61.6244813 Z M698.954607,58.7925311 C698.422027,58.7925311 697.987981,58.9455379 697.652456,59.251556 C697.316931,59.5575741 697.10124,60.0010344 697.005376,60.5819502 L700.760042,60.5819502 C700.696132,59.9906609 700.512395,59.5446073 700.208825,59.2437759 C699.905255,58.9429446 699.487186,58.7925311 698.954607,58.7925311 Z M707.150963,65.5767635 C705.691695,65.5767635 704.53069,65.2448166 703.667911,64.5809129 L704.227117,63.2116183 C705.089895,63.834028 706.075152,64.1452282 707.182918,64.1452282 C707.662239,64.1452282 708.032376,64.0674282 708.29334,63.9118257 C708.554304,63.7562233 708.684784,63.5383831 708.684784,63.2582988 C708.684784,63.0197084 708.594247,62.8303949 708.41317,62.6903527 C708.232093,62.5503105 707.923202,62.4284238 707.486486,62.3246888 L706.144393,62.0290456 C704.674474,61.7178408 703.939525,60.9865203 703.939525,59.8350622 C703.939525,59.3578814 704.077994,58.9351678 704.354935,58.5669087 C704.631876,58.1986496 705.020654,57.9107894 705.521278,57.7033195 C706.021903,57.4958496 706.602406,57.3921162 707.262804,57.3921162 C707.83799,57.3921162 708.391864,57.4776962 708.924444,57.6488589 C709.457023,57.8200216 709.925686,58.0663884 710.330446,58.3879668 L709.739286,59.7105809 C708.929766,59.1296651 708.098954,58.8392116 707.246827,58.8392116 C706.788809,58.8392116 706.431986,58.9221983 706.176348,59.0881743 C705.920709,59.2541502 705.792892,59.4823637 705.792892,59.7728216 C705.792892,60.0010385 705.870115,60.1825719 706.024563,60.3174274 C706.179011,60.4522828 706.442634,60.5663896 706.81544,60.659751 L708.189488,60.9553942 C708.988357,61.1317436 709.571523,61.4040438 709.939003,61.7723029 C710.306482,62.140562 710.49022,62.620329 710.49022,63.2116183 C710.49022,63.937763 710.191979,64.5134834 709.595491,64.9387967 C708.999002,65.36411 708.184167,65.5767635 707.150963,65.5767635 Z M712.199791,65.4522822 L712.199791,57.5943983 L714.180977,57.5943983 L714.180977,65.4522822 L712.199791,65.4522822 Z M712.071973,54.0311203 L714.292818,54.0311203 L714.292818,55.9450207 L712.071973,55.9450207 L712.071973,54.0311203 Z M724.166791,57.5943983 L724.166791,65.2033195 C724.166791,66.427392 723.82062,67.355806 723.128266,67.9885892 C722.435913,68.6213725 721.418702,68.9377593 720.076601,68.9377593 C718.830366,68.9377593 717.733268,68.6836125 716.785277,68.1753112 L717.104823,66.6970954 C718.084769,67.1950232 719.059375,67.4439834 720.02867,67.4439834 C721.466634,67.4439834 722.185605,66.7489696 722.185605,65.3589212 L722.185605,63.8029046 C721.940619,64.2282179 721.583796,64.5731315 721.115126,64.8376556 C720.646456,65.1021797 720.119211,65.2344398 719.533373,65.2344398 C718.830368,65.2344398 718.204597,65.0710597 717.65604,64.7442946 C717.107483,64.4175295 716.681426,63.9559158 716.377856,63.3594398 C716.074285,62.7629638 715.922503,62.0809167 715.922503,61.313278 C715.922503,60.5456393 716.074285,59.8635922 716.377856,59.2671162 C716.681426,58.6706402 717.107483,58.2090265 717.65604,57.8822614 C718.204597,57.5554963 718.830368,57.3921162 719.533373,57.3921162 C720.129862,57.3921162 720.659771,57.5140029 721.123115,57.7577801 C721.586459,58.0015572 721.940619,58.3412841 722.185605,58.776971 L722.185605,57.5943983 L724.166791,57.5943983 Z M720.060624,63.7095436 C720.721023,63.7095436 721.24028,63.4968901 721.618411,63.0715768 C721.996543,62.6462634 722.185605,62.0601697 722.185605,61.313278 C722.185605,60.5663863 721.999205,59.9802926 721.6264,59.5549793 C721.253594,59.1296659 720.731674,58.9170124 720.060624,58.9170124 C719.400226,58.9170124 718.880968,59.1296659 718.502837,59.5549793 C718.124706,59.9802926 717.935643,60.5663863 717.935643,61.313278 C717.935643,62.0601697 718.124706,62.6462634 718.502837,63.0715768 C718.880968,63.4968901 719.400226,63.7095436 720.060624,63.7095436 Z M730.941168,57.3921162 C732.869105,57.3921162 733.83306,58.4709436 733.83306,60.6286307 L733.83306,65.4522822 L731.835897,65.4522822 L731.835897,60.7219917 C731.835897,60.099582 731.713405,59.6457483 731.468419,59.3604772 C731.223432,59.075206 730.845306,58.9325726 730.33403,58.9325726 C729.72689,58.9325726 729.236924,59.1218861 728.864118,59.5005187 C728.491313,59.8791513 728.304913,60.3796649 728.304913,61.0020747 L728.304913,65.4522822 L726.323727,65.4522822 L726.323727,59.8195021 C726.323727,58.9896224 726.281121,58.2479286 726.195909,57.5943983 L728.065253,57.5943983 L728.209049,58.8858921 C728.48599,58.4087113 728.861453,58.0404577 729.335449,57.7811203 C729.809444,57.5217829 730.344679,57.3921162 730.941168,57.3921162 Z M736.101837,54.373444 L740.28789,54.373444 C742.151918,54.373444 743.59785,54.8558043 744.625728,55.8205394 C745.653606,56.7852745 746.167538,58.1441821 746.167538,59.8973029 C746.167538,61.6607972 745.653606,63.0274848 744.625728,63.9974066 C743.59785,64.9673285 742.151918,65.4522822 740.28789,65.4522822 L736.101837,65.4522822 L736.101837,54.373444 Z M740.160072,63.8184647 C742.780363,63.8184647 744.090488,62.5114239 744.090488,59.8973029 C744.090488,57.3039289 742.780363,56.0072614 740.160072,56.0072614 L738.162909,56.0072614 L738.162909,63.8184647 L740.160072,63.8184647 Z M755.849783,57.5943983 L755.849783,65.4522822 L753.884575,65.4522822 L753.884575,64.1919087 C753.639589,64.6275955 753.288091,64.9673224 752.830073,65.2110996 C752.372055,65.4548767 751.850135,65.5767635 751.264297,65.5767635 C750.561293,65.5767635 749.938184,65.41079 749.394953,65.0788382 C748.851722,64.7468863 748.43099,64.2748993 748.132746,63.6628631 C747.834502,63.0508268 747.685382,62.340253 747.685382,61.5311203 C747.685382,60.7219877 747.837164,60.0036338 748.140735,59.3760373 C748.444305,58.7484408 748.867699,58.2608939 749.41093,57.9133817 C749.954161,57.5658696 750.571944,57.3921162 751.264297,57.3921162 C751.850135,57.3921162 752.372055,57.5140029 752.830073,57.7577801 C753.288091,58.0015572 753.639589,58.3412841 753.884575,58.776971 L753.884575,57.5943983 L755.849783,57.5943983 Z M751.807526,64.0518672 C752.467924,64.0518672 752.979193,63.8288404 753.341347,63.3827801 C753.703501,62.9367198 753.884575,62.3091327 753.884575,61.5 C753.884575,60.6701203 753.703501,60.0321599 753.341347,59.5860996 C752.979193,59.1400393 752.462599,58.9170124 751.791548,58.9170124 C751.13115,58.9170124 750.617219,59.1478193 750.249739,59.6094398 C749.882259,60.0710604 749.698522,60.7116142 749.698522,61.5311203 C749.698522,62.340253 749.882259,62.9626534 750.249739,63.3983402 C750.617219,63.8340271 751.136476,64.0518672 751.807526,64.0518672 Z M758.022697,65.4522822 L758.022697,57.5943983 L760.003882,57.5943983 L760.003882,65.4522822 L758.022697,65.4522822 Z M757.894878,54.0311203 L760.115723,54.0311203 L760.115723,55.9450207 L757.894878,55.9450207 L757.894878,54.0311203 Z M762.192773,65.4522822 L762.192773,54 L764.173958,54 L764.173958,65.4522822 L762.192773,65.4522822 Z M774,57.5943983 L770.245334,65.9813278 C769.81927,66.9564364 769.276047,67.6670102 768.615649,68.1130705 C767.95525,68.5591309 767.140416,68.8547711 766.171121,69 L765.723757,67.5062241 C766.48002,67.3402481 767.047208,67.130188 767.42534,66.8760373 C767.803471,66.6218867 768.1097,66.2458531 768.344035,65.7479253 L768.599671,65.1721992 L765.244438,57.5943983 L767.337465,57.5943983 L769.654174,63.2427386 L772.018814,57.5943983 L774,57.5943983 Z" id="UIDesignDaily-white"></path>
            </g>
        </g>
    </g>
</svg>