<?xml version="1.0" encoding="UTF-8"?>
<svg width="472px" height="134px" viewBox="0 0 472 134" version="1.1" xmlns="http://www.w3.org/2000/svg" xmlns:xlink="http://www.w3.org/1999/xlink">
    <!-- Generator: Sketch 63.1 (92452) - https://sketch.com -->
    <title>UIDesignDaily-logo-white</title>
    <desc>Created with Sketch.</desc>
    <g id="Logo" stroke="none" stroke-width="1" fill="none" fill-rule="evenodd">
        <path d="M102.33418,11.3910559 C132.944908,29.0641678 143.432918,68.2059538 125.759806,98.8166817 C108.086694,129.42741 66.9449076,143.989794 36.3341797,126.316682 C5.72345178,108.64357 -10.3389323,56.4274096 7.33417968,25.8166817 C25.0072917,-4.79404621 71.7234518,-6.28205614 102.33418,11.3910559 Z M277.78918,59.2616817 C279.76918,59.2616817 281.52918,59.6741817 283.06918,60.4991817 C284.60918,61.3241817 285.782513,62.4883484 286.58918,63.9916817 L286.58918,63.9916817 L286.58918,62.5616817 L286.595673,62.3271678 C286.643288,61.4812882 286.952791,60.7894595 287.52418,60.2516817 C288.147513,59.665015 288.972513,59.3716817 289.99918,59.3716817 C291.025846,59.3716817 291.850846,59.665015 292.47418,60.2516817 C293.097513,60.8383484 293.40918,61.6266817 293.40918,62.6166817 L293.40918,62.6166817 L293.40918,84.3416817 L293.404994,84.7742263 C293.326865,88.7771276 292.154927,91.8229461 289.88918,93.9116817 C287.542513,96.075015 284.077513,97.1566817 279.49418,97.1566817 C275.497513,97.1566817 272.160846,96.405015 269.48418,94.9016817 C268.127513,94.095015 267.44918,93.1233484 267.44918,91.9866817 C267.44918,91.180015 267.64168,90.5383484 268.02668,90.0616817 C268.41168,89.585015 268.915846,89.3466817 269.53918,89.3466817 C269.86918,89.3466817 270.272513,89.4291817 270.74918,89.5941817 C271.225846,89.7591817 271.720846,89.9516817 272.23418,90.1716817 C273.55418,90.7216817 274.73668,91.1433484 275.78168,91.4366817 C276.82668,91.730015 278.027513,91.8766817 279.38418,91.8766817 C284.187513,91.8766817 286.58918,89.530015 286.58918,84.8366817 L286.58918,84.8366817 L286.58918,81.3166817 L286.422957,81.6128261 C285.624439,82.9737298 284.506513,84.0391817 283.06918,84.8091817 C281.52918,85.6341817 279.76918,86.0466817 277.78918,86.0466817 C275.442513,86.0466817 273.36168,85.487515 271.54668,84.3691817 C269.73168,83.2508484 268.310846,81.6833484 267.28418,79.6666817 C266.257513,77.650015 265.74418,75.3216817 265.74418,72.6816817 C265.74418,70.0416817 266.248346,67.7041817 267.25668,65.6691817 C268.265013,63.6341817 269.685846,62.057515 271.51918,60.9391817 C273.352513,59.8208484 275.442513,59.2616817 277.78918,59.2616817 Z M447.18918,59.3716817 C447.812513,59.3716817 448.380846,59.527515 448.89418,59.8391817 C449.407513,60.1508484 449.810846,60.6366817 450.10418,61.2966817 L450.10418,61.2966817 L457.80418,78.2916817 L465.44918,61.3516817 L465.550692,61.1381323 C465.83135,60.5858689 466.19168,60.1712187 466.63168,59.8941817 C467.12668,59.582515 467.667513,59.4266817 468.25418,59.4266817 C469.097513,59.4266817 469.858346,59.7108484 470.53668,60.2791817 C471.215013,60.847515 471.55418,61.5533484 471.55418,62.3966817 C471.55418,62.800015 471.44418,63.2216817 471.22418,63.6616817 L471.22418,63.6616817 L456.20918,95.1216817 L456.102065,95.3236879 C455.476808,96.4356838 454.540846,96.9916817 453.29418,96.9916817 C452.450846,96.9916817 451.708346,96.7258484 451.06668,96.1941817 C450.425013,95.662515 450.10418,94.9933484 450.10418,94.1866817 C450.10418,93.7833484 450.21418,93.325015 450.43418,92.8116817 L450.43418,92.8116817 L454.17418,84.9466817 L443.94418,63.6616817 L443.860152,63.473765 C443.732837,63.1529317 443.66918,62.7939039 443.66918,62.3966817 C443.66918,61.5533484 444.02668,60.8383484 444.74168,60.2516817 C445.45668,59.665015 446.272513,59.3716817 447.18918,59.3716817 Z M74.2041797,44.6666817 C72.947513,44.6666817 71.9508463,45.0458484 71.2141797,45.8041817 C70.5301321,46.5083484 70.163678,47.4273577 70.1148174,48.5612098 L70.1091797,48.8266817 L70.1091797,72.7466817 C70.1091797,76.6466817 69.177513,79.615015 67.3141797,81.6516817 C65.4508463,83.6883484 62.742513,84.7066817 59.1891797,84.7066817 C55.592513,84.7066817 52.862513,83.6991817 50.9991797,81.6841817 C49.2048587,79.7438113 48.27447,76.9093715 48.2080137,73.1808621 L48.2041797,72.7466817 L48.2041797,48.8266817 C48.2041797,47.570015 47.8358463,46.562515 47.0991797,45.8041817 C46.362513,45.0458484 45.3658463,44.6666817 44.1091797,44.6666817 C42.852513,44.6666817 41.8558463,45.0458484 41.1191797,45.8041817 C40.4351321,46.5083484 40.068678,47.4273577 40.0198174,48.5612098 L40.0141797,48.8266817 L40.0141797,72.2916817 C40.0141797,78.5316817 41.6391797,83.2766817 44.8891797,86.5266817 C48.1391797,89.7766817 52.9058463,91.4016817 59.1891797,91.4016817 C65.4291797,91.4016817 70.1741797,89.7658484 73.4241797,86.4941817 C76.5839019,83.3133947 78.207648,78.7502291 78.2954181,72.8046852 L78.2991797,72.2916817 L78.2991797,48.8266817 C78.2991797,47.570015 77.9308463,46.562515 77.1941797,45.8041817 C76.457513,45.0458484 75.4608463,44.6666817 74.2041797,44.6666817 Z M92.0791797,44.6666817 C90.822513,44.6666817 89.815013,45.0458484 89.0566797,45.8041817 C88.352513,46.5083484 87.9752809,47.4273577 87.9249833,48.5612098 L87.9191797,48.8266817 L87.9191797,86.9816817 C87.9191797,88.2383484 88.2983463,89.2566817 89.0566797,90.0366817 C89.815013,90.8166817 90.822513,91.2066817 92.0791797,91.2066817 C93.3791797,91.2066817 94.4083463,90.8166817 95.1666797,90.0366817 C95.8708463,89.312396 96.2480785,88.3826086 96.2983761,87.2473194 L96.3041797,86.9816817 L96.3041797,48.8266817 C96.3041797,47.570015 95.925013,46.562515 95.1666797,45.8041817 C94.4083463,45.0458484 93.3791797,44.6666817 92.0791797,44.6666817 Z M400.71418,59.2616817 C404.45418,59.2616817 407.23168,60.187515 409.04668,62.0391817 C410.86168,63.8908484 411.76918,66.705015 411.76918,70.4816817 L411.76918,70.4816817 L411.76918,83.9016817 L411.763069,84.1447893 C411.718254,85.0200787 411.426957,85.7182095 410.88918,86.2391817 C410.302513,86.807515 409.495846,87.0916817 408.46918,87.0916817 C407.515846,87.0916817 406.73668,86.7983484 406.13168,86.2116817 C405.52668,85.625015 405.22418,84.855015 405.22418,83.9016817 L405.22418,83.9016817 L405.22418,82.6916817 L405.094746,82.9735261 C404.46848,84.2694076 403.530791,85.2937928 402.28168,86.0466817 C400.943346,86.8533484 399.39418,87.2566817 397.63418,87.2566817 C395.837513,87.2566817 394.205846,86.890015 392.73918,86.1566817 C391.272513,85.4233484 390.117513,84.415015 389.27418,83.1316817 C388.430846,81.8483484 388.00918,80.4183484 388.00918,78.8416817 C388.00918,76.8616817 388.513346,75.3033484 389.52168,74.1666817 C390.530013,73.030015 392.170846,72.205015 394.44418,71.6916817 C396.717513,71.1783484 399.852513,70.9216817 403.84918,70.9216817 L403.84918,70.9216817 L405.22418,70.9216817 L405.22418,69.6566817 L405.219668,69.3255001 C405.174551,67.6980586 404.791055,66.4976192 404.06918,65.7241817 C403.29918,64.8991817 402.052513,64.4866817 400.32918,64.4866817 C399.265846,64.4866817 398.18418,64.642515 397.08418,64.9541817 C395.98418,65.2658484 394.682513,65.715015 393.17918,66.3016817 C392.225846,66.7783484 391.52918,67.0166817 391.08918,67.0166817 C390.42918,67.0166817 389.888346,66.7783484 389.46668,66.3016817 C389.045013,65.825015 388.83418,65.2016817 388.83418,64.4316817 C388.83418,63.8083484 388.990013,63.267515 389.30168,62.8091817 C389.613346,62.3508484 390.135846,61.920015 390.86918,61.5166817 C392.152513,60.820015 393.683346,60.270015 395.46168,59.8666817 C397.240013,59.4633484 398.990846,59.2616817 400.71418,59.2616817 Z M208.98418,59.2616817 C211.40418,59.2616817 213.512513,59.7933484 215.30918,60.8566817 C217.105846,61.920015 218.49918,63.4233484 219.48918,65.3666817 C220.47918,67.310015 220.97418,69.6016817 220.97418,72.2416817 C220.97418,73.8183484 220.277513,74.6066817 218.88418,74.6066817 L218.88418,74.6066817 L202.65918,74.6066817 L202.695892,74.9811629 C202.951917,77.3210921 203.65468,79.0570984 204.80418,80.1891817 C206.01418,81.3808484 207.77418,81.9766817 210.08418,81.9766817 C211.257513,81.9766817 212.293346,81.830015 213.19168,81.5366817 C214.090013,81.2433484 215.107513,80.840015 216.24418,80.3266817 C217.34418,79.740015 218.150846,79.4466817 218.66418,79.4466817 C219.287513,79.4466817 219.79168,79.685015 220.17668,80.1616817 C220.56168,80.6383484 220.75418,81.280015 220.75418,82.0866817 C220.75418,83.2233484 220.075846,84.1766817 218.71918,84.9466817 C217.472513,85.6433484 216.060846,86.202515 214.48418,86.6241817 C212.907513,87.0458484 211.40418,87.2566817 209.97418,87.2566817 C205.647513,87.2566817 202.21918,86.010015 199.68918,83.5166817 C197.15918,81.0233484 195.89418,77.6133484 195.89418,73.2866817 C195.89418,70.5366817 196.44418,68.0983484 197.54418,65.9716817 C198.64418,63.845015 200.193346,62.195015 202.19168,61.0216817 C204.190013,59.8483484 206.45418,59.2616817 208.98418,59.2616817 Z M236.81418,59.2616817 C238.35418,59.2616817 239.83918,59.4541817 241.26918,59.8391817 C242.69918,60.2241817 243.982513,60.7833484 245.11918,61.5166817 C246.292513,62.250015 246.87918,63.2216817 246.87918,64.4316817 C246.87918,65.165015 246.677513,65.7791817 246.27418,66.2741817 C245.870846,66.7691817 245.375846,67.0166817 244.78918,67.0166817 C244.385846,67.0166817 243.99168,66.9341817 243.60668,66.7691817 C243.22168,66.6041817 242.735846,66.3566817 242.14918,66.0266817 C241.085846,65.4766817 240.16918,65.0641817 239.39918,64.7891817 C238.62918,64.5141817 237.675846,64.3766817 236.53918,64.3766817 C235.182513,64.3766817 234.110013,64.6516817 233.32168,65.2016817 C232.533346,65.7516817 232.13918,66.5033484 232.13918,67.4566817 C232.13918,68.3733484 232.542513,69.070015 233.34918,69.5466817 C234.155846,70.0233484 235.71418,70.500015 238.02418,70.9766817 C240.480846,71.490015 242.405846,72.0766817 243.79918,72.7366817 C245.192513,73.3966817 246.19168,74.2216817 246.79668,75.2116817 C247.40168,76.2016817 247.70418,77.4666817 247.70418,79.0066817 C247.70418,81.500015 246.668346,83.4983484 244.59668,85.0016817 C242.525013,86.505015 239.765846,87.2566817 236.31918,87.2566817 C232.322513,87.2566817 229.095846,86.4683484 226.63918,84.8916817 C225.465846,84.195015 224.87918,83.205015 224.87918,81.9216817 C224.87918,81.1883484 225.080846,80.592515 225.48418,80.1341817 C225.887513,79.6758484 226.382513,79.4466817 226.96918,79.4466817 C227.592513,79.4466817 228.45418,79.740015 229.55418,80.3266817 C230.727513,80.8766817 231.800013,81.2983484 232.77168,81.5916817 C233.743346,81.885015 234.980846,82.0316817 236.48418,82.0316817 C238.02418,82.0316817 239.225013,81.775015 240.08668,81.2616817 C240.948346,80.7483484 241.37918,80.0333484 241.37918,79.1166817 C241.37918,78.4933484 241.205013,77.9983484 240.85668,77.6316817 C240.508346,77.265015 239.885013,76.9258484 238.98668,76.6141817 C238.088346,76.302515 236.722513,75.945015 234.88918,75.5416817 C231.625846,74.8816817 229.288346,73.9466817 227.87668,72.7366817 C226.465013,71.5266817 225.75918,69.8583484 225.75918,67.7316817 C225.75918,66.1183484 226.235846,64.6608484 227.18918,63.3591817 C228.142513,62.057515 229.453346,61.0491817 231.12168,60.3341817 C232.790013,59.6191817 234.687513,59.2616817 236.81418,59.2616817 Z M316.12418,59.2616817 C319.350846,59.2616817 321.752513,60.1783484 323.32918,62.0116817 C324.905846,63.845015 325.69418,66.6133484 325.69418,70.3166817 L325.69418,70.3166817 L325.69418,83.8466817 L325.68881,84.0796994 C325.645851,84.9961492 325.345141,85.7251432 324.78668,86.2666817 C324.18168,86.8533484 323.347513,87.1466817 322.28418,87.1466817 C321.220846,87.1466817 320.377513,86.8533484 319.75418,86.2666817 C319.130846,85.680015 318.81918,84.8733484 318.81918,83.8466817 L318.81918,83.8466817 L318.81918,70.7016817 L318.815088,70.3387578 C318.771443,68.4346286 318.37864,67.0339366 317.63668,66.1366817 C316.848346,65.1833484 315.610846,64.7066817 313.92418,64.7066817 C311.94418,64.7066817 310.358346,65.330015 309.16668,66.5766817 C307.975013,67.8233484 307.37918,69.4916817 307.37918,71.5816817 L307.37918,71.5816817 L307.37918,83.8466817 L307.373647,84.0796994 C307.329387,84.9961492 307.019564,85.7251432 306.44418,86.2666817 C305.820846,86.8533484 304.977513,87.1466817 303.91418,87.1466817 C302.850846,87.1466817 302.01668,86.8533484 301.41168,86.2666817 C300.80668,85.680015 300.50418,84.8733484 300.50418,83.8466817 L300.50418,83.8466817 L300.50418,62.5616817 L300.510673,62.3271678 C300.558288,61.4812882 300.867791,60.7894595 301.43918,60.2516817 C302.062513,59.665015 302.905846,59.3716817 303.96918,59.3716817 C304.922513,59.3716817 305.70168,59.6558484 306.30668,60.2241817 C306.91168,60.792515 307.21418,61.535015 307.21418,62.4516817 L307.21418,62.4516817 L307.21418,63.9366817 L307.415379,63.6198705 C308.307913,62.2701256 309.46918,61.2207293 310.89918,60.4716817 C312.43918,59.665015 314.180846,59.2616817 316.12418,59.2616817 Z M256.66918,59.3716817 C257.65918,59.3716817 258.48418,59.6466817 259.14418,60.1966817 C259.80418,60.7466817 260.13418,61.5533484 260.13418,62.6166817 L260.13418,62.6166817 L260.13418,83.8466817 L260.128322,84.0876728 C260.081458,85.0340634 259.75341,85.7695663 259.14418,86.2941817 C258.48418,86.862515 257.65918,87.1466817 256.66918,87.1466817 C255.67918,87.1466817 254.863346,86.862515 254.22168,86.2941817 C253.580013,85.7258484 253.25918,84.910015 253.25918,83.8466817 L253.25918,83.8466817 L253.25918,62.6166817 L253.264875,62.3758533 C253.310437,61.4307645 253.629372,60.704374 254.22168,60.1966817 C254.863346,59.6466817 255.67918,59.3716817 256.66918,59.3716817 Z M422.16418,59.3716817 C423.15418,59.3716817 423.97918,59.6466817 424.63918,60.1966817 C425.29918,60.7466817 425.62918,61.5533484 425.62918,62.6166817 L425.62918,62.6166817 L425.62918,83.8466817 L425.623322,84.0876728 C425.576458,85.0340634 425.24841,85.7695663 424.63918,86.2941817 C423.97918,86.862515 423.15418,87.1466817 422.16418,87.1466817 C421.17418,87.1466817 420.358346,86.862515 419.71668,86.2941817 C419.075013,85.7258484 418.75418,84.910015 418.75418,83.8466817 L418.75418,83.8466817 L418.75418,62.6166817 L418.759875,62.3758533 C418.805437,61.4307645 419.124372,60.704374 419.71668,60.1966817 C420.358346,59.6466817 421.17418,59.3716817 422.16418,59.3716817 Z M436.13418,47.7666817 C437.12418,47.7666817 437.94918,48.0416817 438.60918,48.5916817 C439.26918,49.1416817 439.59918,49.9483484 439.59918,51.0116817 L439.59918,51.0116817 L439.59918,83.8466817 L439.593322,84.0876728 C439.546458,85.0340634 439.21841,85.7695663 438.60918,86.2941817 C437.94918,86.862515 437.12418,87.1466817 436.13418,87.1466817 C435.14418,87.1466817 434.328346,86.862515 433.68668,86.2941817 C433.045013,85.7258484 432.72418,84.910015 432.72418,83.8466817 L432.72418,83.8466817 L432.72418,51.0116817 L432.729875,50.7708533 C432.775437,49.8257645 433.094372,49.099374 433.68668,48.5916817 C434.328346,48.0416817 435.14418,47.7666817 436.13418,47.7666817 Z M170.81418,48.0416817 L171.339502,48.0456072 C177.429889,48.1372032 182.177282,49.831728 185.58168,53.1291817 C189.083346,56.5208484 190.83418,61.2783484 190.83418,67.4016817 C190.83418,73.5616817 189.083346,78.337515 185.58168,81.7291817 C182.080013,85.1208484 177.157513,86.8166817 170.81418,86.8166817 L170.81418,86.8166817 L159.92418,86.8166817 L159.663121,86.8105706 C158.72341,86.7657558 157.976263,86.4744595 157.42168,85.9366817 C156.81668,85.350015 156.51418,84.525015 156.51418,83.4616817 L156.51418,83.4616817 L156.51418,51.3966817 L156.51955,51.1555278 C156.562508,50.2078355 156.863218,49.4632202 157.42168,48.9216817 C158.02668,48.335015 158.860846,48.0416817 159.92418,48.0416817 L159.92418,48.0416817 L170.81418,48.0416817 Z M362.48918,48.0416817 L363.014502,48.0456072 C369.104889,48.1372032 373.852282,49.831728 377.25668,53.1291817 C380.758346,56.5208484 382.50918,61.2783484 382.50918,67.4016817 C382.50918,73.5616817 380.758346,78.337515 377.25668,81.7291817 C373.755013,85.1208484 368.832513,86.8166817 362.48918,86.8166817 L362.48918,86.8166817 L351.59918,86.8166817 L351.338121,86.8105706 C350.39841,86.7657558 349.651263,86.4744595 349.09668,85.9366817 C348.49168,85.350015 348.18918,84.525015 348.18918,83.4616817 L348.18918,83.4616817 L348.18918,51.3966817 L348.19455,51.1555278 C348.237508,50.2078355 348.538218,49.4632202 349.09668,48.9216817 C349.70168,48.335015 350.535846,48.0416817 351.59918,48.0416817 L351.59918,48.0416817 L362.48918,48.0416817 Z M405.22418,74.5516817 L404.23418,74.5516817 L403.78,74.5529708 C401.541328,74.5658614 399.786055,74.6754317 398.51418,74.8816817 C397.157513,75.1016817 396.185846,75.4866817 395.59918,76.0366817 C395.012513,76.5866817 394.71918,77.3383484 394.71918,78.2916817 C394.71918,79.465015 395.13168,80.427515 395.95668,81.1791817 C396.78168,81.9308484 397.79918,82.3066817 399.00918,82.3066817 C400.842513,82.3066817 402.33668,81.692515 403.49168,80.4641817 C404.64668,79.2358484 405.22418,77.650015 405.22418,75.7066817 L405.22418,75.7066817 L405.22418,74.5516817 Z M170.37418,53.8166817 L163.60918,53.8166817 L163.60918,81.0416817 L170.37418,81.0416817 C179.28418,81.0416817 183.73918,76.495015 183.73918,67.4016817 C183.73918,58.345015 179.28418,53.8166817 170.37418,53.8166817 L170.37418,53.8166817 Z M362.04918,53.8166817 L355.28418,53.8166817 L355.28418,81.0416817 L362.04918,81.0416817 C370.95918,81.0416817 375.41418,76.495015 375.41418,67.4016817 C375.41418,58.345015 370.95918,53.8166817 362.04918,53.8166817 L362.04918,53.8166817 Z M279.60418,64.5966817 C277.440846,64.5966817 275.735846,65.3116817 274.48918,66.7416817 C273.242513,68.1716817 272.61918,70.1516817 272.61918,72.6816817 C272.61918,75.175015 273.242513,77.1366817 274.48918,78.5666817 C275.735846,79.9966817 277.440846,80.7116817 279.60418,80.7116817 C281.80418,80.7116817 283.518346,79.9966817 284.74668,78.5666817 C285.975013,77.1366817 286.58918,75.175015 286.58918,72.6816817 C286.58918,70.1516817 285.975013,68.1716817 284.74668,66.7416817 C283.518346,65.3116817 281.80418,64.5966817 279.60418,64.5966817 Z M209.14918,64.1016817 C207.27918,64.1016817 205.785013,64.6883484 204.66668,65.8616817 C203.548346,67.035015 202.87918,68.7216817 202.65918,70.9216817 L202.65918,70.9216817 L215.08918,70.9216817 C215.015846,68.685015 214.465846,66.9891817 213.43918,65.8341817 C212.412513,64.6791817 210.982513,64.1016817 209.14918,64.1016817 Z M256.66918,47.1616817 C257.87918,47.1616817 258.860013,47.4916817 259.61168,48.1516817 C260.363346,48.8116817 260.73918,49.6916817 260.73918,50.7916817 C260.73918,51.8916817 260.372513,52.7808484 259.63918,53.4591817 C258.905846,54.137515 257.915846,54.4766817 256.66918,54.4766817 C255.422513,54.4766817 254.432513,54.137515 253.69918,53.4591817 C252.965846,52.7808484 252.59918,51.8916817 252.59918,50.7916817 C252.59918,49.6916817 252.965846,48.8116817 253.69918,48.1516817 C254.432513,47.4916817 255.422513,47.1616817 256.66918,47.1616817 Z M422.16418,47.1616817 C423.37418,47.1616817 424.355013,47.4916817 425.10668,48.1516817 C425.858346,48.8116817 426.23418,49.6916817 426.23418,50.7916817 C426.23418,51.8916817 425.867513,52.7808484 425.13418,53.4591817 C424.400846,54.137515 423.410846,54.4766817 422.16418,54.4766817 C420.917513,54.4766817 419.927513,54.137515 419.19418,53.4591817 C418.460846,52.7808484 418.09418,51.8916817 418.09418,50.7916817 C418.09418,49.6916817 418.460846,48.8116817 419.19418,48.1516817 C419.927513,47.4916817 420.917513,47.1616817 422.16418,47.1616817 Z" id="UIDesignDaily-logo-white" fill="#FFFFFF" fill-rule="nonzero"></path>
    </g>
</svg>