<?xml version="1.0" encoding="utf-8"?>
<!-- Generator: Adobe Illustrator 23.0.4, SVG Export Plug-In . SVG Version: 6.00 Build 0)  -->
<svg version="1.1" id="Layer_1" xmlns="http://www.w3.org/2000/svg" xmlns:xlink="http://www.w3.org/1999/xlink" x="0px" y="0px"
	 viewBox="0 0 70.7 61.1" style="enable-background:new 0 0 70.7 61.1;" xml:space="preserve">
<style type="text/css">
	.st0{opacity:0.13;}
	.st1{filter:url(#filter-3);}
	.st2{fill:url(#SVGID_1_);}
</style>
<filter  filterUnits="objectBoundingBox" height="201.5%" id="filter-3" width="179.2%" x="-39.6%" y="-25.4%">
	<feMorphology  in="SourceAlpha" operator="erode" radius="9.5" result="shadowSpreadOuter1"></feMorphology>
	<feOffset  dx="0" dy="20" in="shadowSpreadOuter1" result="shadowOffsetOuter1"></feOffset>
	<feGaussianBlur  in="shadowOffsetOuter1" result="shadowBlurOuter1" stdDeviation="15"></feGaussianBlur>
	
		<feColorMatrix  in="shadowBlurOuter1" type="matrix" values="0 0 0 0 0.62745098   0 0 0 0 0.17254902   0 0 0 0 0.858823529  0 0 0 0.58 0">
		</feColorMatrix>
</filter>
<title>close-cookie-oval</title>
<desc>Created with Sketch.</desc>
<g id="Main-Mockups" class="st0">
	<g id="close-cookie-oval" transform="translate(49.902055, 30.143740) rotate(20.000000) translate(-49.902055, -30.143740) ">
		<g class="st1">
			<path id="path-2_1_" d="M36.3,65.6c15.9,0,33.6-13.6,33.6-29.7C69.9,19.8,53.9,4.5,38,4.5C22.1,4.5,3,24.6,3,40.7
				C3,56.8,20.4,65.6,36.3,65.6z"/>
		</g>
		<g>
			
				<linearGradient id="SVGID_1_" gradientUnits="userSpaceOnUse" x1="-466.0677" y1="640.1263" x2="-465.0756" y2="640.1263" gradientTransform="matrix(62.9167 -20.8874 -22.8998 -57.3877 43985.1914 27035.4668)">
				<stop  offset="0" style="stop-color:#BA81FF"/>
				<stop  offset="1" style="stop-color:#FF6A95"/>
			</linearGradient>
			<path class="st2" d="M36.3,65.6c15.9,0,33.6-13.6,33.6-29.7C69.9,19.8,53.9,4.5,38,4.5C22.1,4.5,3,24.6,3,40.7
				C3,56.8,20.4,65.6,36.3,65.6z"/>
		</g>
	</g>
</g>
</svg>
