<?xml version="1.0" encoding="UTF-8"?>
<svg width="24px" height="23px" viewBox="0 0 24 23" version="1.1" xmlns="http://www.w3.org/2000/svg" xmlns:xlink="http://www.w3.org/1999/xlink">
    <!-- Generator: Sketch 52.6 (67491) - http://www.bohemiancoding.com/sketch -->
    <title>close-cookie-banner-icon</title>
    <desc>Created with Sketch.</desc>
    <g id="V2" stroke="none" stroke-width="1" fill="none" fill-rule="evenodd">
        <g id="landing-page-banner-copy-2" transform="translate(-1370.000000, -1429.000000)" fill="#7D7A9E">
            <g id="Group-29-Copy" transform="translate(0.000000, 1359.000000)">
                <g id="Group-4" transform="translate(64.000000, 41.000000)">
                    <path d="M1319.82596,40.2870588 L1329.06547,31.4098824 C1329.63951,30.8588235 1329.63951,29.9647059 1329.06547,29.4136471 C1328.49143,28.8621176 1327.5618,28.8621176 1326.98776,29.4136471 L1317.74824,38.2908235 L1308.50824,29.4136471 C1307.9342,28.8621176 1307.00457,28.8621176 1306.43053,29.4136471 C1305.85649,29.9647059 1305.85649,30.8588235 1306.43053,31.4098824 L1315.67053,40.2870588 L1306.43053,49.1642353 C1305.85649,49.7152941 1305.85649,50.6094118 1306.43053,51.1604706 C1306.71755,51.4357647 1307.09371,51.5736471 1307.46939,51.5736471 C1307.84506,51.5736471 1308.22122,51.4357647 1308.50824,51.16 L1317.74824,42.2828235 L1326.98776,51.16 C1327.27478,51.4357647 1327.65094,51.5736471 1328.02661,51.5736471 C1328.40229,51.5736471 1328.77845,51.4357647 1329.06547,51.16 C1329.63951,50.6089412 1329.63951,49.7148235 1329.06547,49.1637647 L1319.82596,40.2870588 Z" id="close-cookie-banner-icon"></path>
                </g>
            </g>
        </g>
    </g>
</svg>