<?xml version="1.0" encoding="UTF-8"?>
<svg width="15px" height="15px" viewBox="0 0 15 15" version="1.1" xmlns="http://www.w3.org/2000/svg" xmlns:xlink="http://www.w3.org/1999/xlink">
    <!-- Generator: Sketch 52.6 (67491) - http://www.bohemiancoding.com/sketch -->
    <title>close-icon-light</title>
    <desc>Created with Sketch.</desc>
    <g id="V2" stroke="none" stroke-width="1" fill="none" fill-rule="evenodd" opacity="0.8">
        <g id="selected-design-subscribe" transform="translate(-1380.000000, -648.000000)" fill="#FFFFFF">
            <g id="Group" transform="translate(1110.000000, 628.000000)">
                <g id="Group-21" transform="translate(270.000000, 20.000000)">
                    <g id="close-(7)">
                        <path d="M8.82125,7.495625 L14.71625,1.600625 C15.0825,1.2346875 15.0825,0.6409375 14.71625,0.275 C14.35,-0.09125 13.756875,-0.09125 13.390625,0.275 L7.495625,6.17 L1.6003125,0.275 C1.2340625,-0.09125 0.6409375,-0.09125 0.2746875,0.275 C-0.0915625,0.6409375 -0.0915625,1.2346875 0.2746875,1.600625 L6.17,7.495625 L0.2746875,13.390625 C-0.0915625,13.7565625 -0.0915625,14.3503125 0.2746875,14.71625 C0.4578125,14.8990625 0.6978125,14.990625 0.9375,14.990625 C1.1771875,14.990625 1.4171875,14.8990625 1.6003125,14.7159375 L7.495625,8.8209375 L13.390625,14.7159375 C13.57375,14.8990625 13.81375,14.990625 14.0534375,14.990625 C14.293125,14.990625 14.533125,14.8990625 14.71625,14.7159375 C15.0825,14.35 15.0825,13.75625 14.71625,13.3903125 L8.82125,7.495625 Z" id="close-icon-light"></path>
                    </g>
                </g>
            </g>
        </g>
    </g>
</svg>