<?xml version="1.0" encoding="UTF-8"?>
<svg width="25px" height="25px" viewBox="0 0 25 25" version="1.1" xmlns="http://www.w3.org/2000/svg" xmlns:xlink="http://www.w3.org/1999/xlink">
    <!-- Generator: Sketch 52.6 (67491) - http://www.bohemiancoding.com/sketch -->
    <title>dribbble-icon</title>
    <desc>Created with Sketch.</desc>
    <g id="Main-Mockups" stroke="none" stroke-width="1" fill="none" fill-rule="evenodd">
        <g id="selected-design-subscribe-copy" transform="translate(-1232.000000, -924.000000)">
            <g id="Group" transform="translate(1068.000000, 508.000000)">
                <g id="Mask" transform="translate(1.000000, 0.000000)">
                    <g id="Group-13" transform="translate(88.000000, 416.000000)">
                        <g id="dribbble-icon" transform="translate(75.000000, 0.000000)">
                            <circle id="Oval" fill="#EC407A" cx="12.5" cy="12.415625" r="11.71875"></circle>
                            <path d="M12.5,0 C5.6078125,0 0,5.6078125 0,12.5 C0,19.3921875 5.6078125,25 12.5,25 C19.3921875,25 25,19.3921875 25,12.5 C25,5.6078125 19.3921875,0 12.5,0 Z M23.4328125,12.59375 C20.7859375,11.8953125 18.071875,11.8140625 15.4859375,12.346875 C15.1328125,11.465625 14.7515625,10.5984375 14.3421875,9.7421875 C16.68125,8.6484375 18.84375,7.165625 20.740625,5.3328125 C22.4140625,7.253125 23.4375,9.75625 23.4375,12.5 C23.4375,12.53125 23.4328125,12.5609375 23.4328125,12.59375 Z M19.6359375,4.2296875 C17.8640625,5.940625 15.8484375,7.334375 13.6640625,8.353125 C12.496875,6.11875 11.13125,3.984375 9.5859375,1.96875 C10.515625,1.7109375 11.4890625,1.5625 12.5,1.5625 C15.2265625,1.5625 17.71875,2.571875 19.6359375,4.2296875 Z M8.0421875,2.521875 C9.628125,4.540625 11.0203125,6.690625 12.20625,8.9421875 C8.925,10.1953125 5.3625,10.6765625 1.7953125,10.259375 C2.51875,6.796875 4.8875,3.9375 8.0421875,2.521875 Z M1.5625,12.5 C1.5625,12.265625 1.5828125,12.0359375 1.5984375,11.80625 C2.5234375,11.915625 3.4484375,11.9875 4.3703125,11.9875 C7.3109375,11.9875 10.2,11.4125 12.9078125,10.3578125 C13.2828125,11.1390625 13.6359375,11.93125 13.9625,12.734375 C10.121875,13.8875 6.7,16.346875 4.396875,19.8203125 C2.6421875,17.8796875 1.5625,15.315625 1.5625,12.5 Z M5.5390625,20.9296875 C7.6578125,17.5984375 10.8890625,15.25 14.525,14.1875 C15.5125,16.90625 16.2234375,19.7296875 16.6375,22.61875 C15.3609375,23.14375 13.9640625,23.4375 12.5,23.4375 C9.8578125,23.4375 7.43125,22.4953125 5.5390625,20.9296875 Z M18.103125,21.875 C17.6734375,19.121875 16.9921875,16.4265625 16.059375,13.825 C18.4203125,13.38125 20.890625,13.4859375 23.296875,14.165625 C22.7921875,17.440625 20.8375,20.234375 18.103125,21.875 Z" id="Shape" fill="#C2185B" fill-rule="nonzero"></path>
                        </g>
                    </g>
                </g>
            </g>
        </g>
    </g>
</svg>