<?xml version="1.0" encoding="UTF-8"?>
<svg width="35px" height="35px" viewBox="0 0 35 35" version="1.1" xmlns="http://www.w3.org/2000/svg" xmlns:xlink="http://www.w3.org/1999/xlink">
    <!-- Generator: Sketch 52.6 (67491) - http://www.bohemiancoding.com/sketch -->
    <title>facebook-icon</title>
    <desc>Created with Sketch.</desc>
    <g id="Main-Mockups" stroke="none" stroke-width="1" fill="none" fill-rule="evenodd">
        <g id="selected-design-share" transform="translate(-760.000000, -387.000000)">
            <g id="Group-19" transform="translate(316.000000, 240.000000)">
                <g id="Group-16" transform="translate(420.000000, 123.000000)">
                    <g id="facebook-icon" transform="translate(24.000000, 24.000000)">
                        <path d="M35,17.5 C35,7.83500977 27.1649902,0 17.5,0 C7.83500977,0 0,7.83500977 0,17.5 C0,26.2346191 6.39946289,33.4745605 14.765625,34.7874023 L14.765625,22.5585937 L10.3222656,22.5585937 L10.3222656,17.5 L14.765625,17.5 L14.765625,13.6445312 C14.765625,9.25859375 17.3783203,6.8359375 21.3756348,6.8359375 C23.2896973,6.8359375 25.2929688,7.17773437 25.2929688,7.17773437 L25.2929688,11.484375 L23.0863281,11.484375 C20.9125,11.484375 20.234375,12.8334473 20.234375,14.21875 L20.234375,17.5 L25.0878906,17.5 L24.3120117,22.5585937 L20.234375,22.5585937 L20.234375,34.7874023 C28.6005371,33.4745605 35,26.2346191 35,17.5 Z" id="Path" fill="#1877F2"></path>
                        <path d="M24.3120117,22.5585937 L25.0878906,17.5 L20.234375,17.5 L20.234375,14.21875 C20.234375,12.8348145 20.9125,11.484375 23.0863281,11.484375 L25.2929688,11.484375 L25.2929688,7.17773437 C25.2929688,7.17773437 23.2903809,6.8359375 21.3756348,6.8359375 C17.3783203,6.8359375 14.765625,9.25859375 14.765625,13.6445312 L14.765625,17.5 L10.3222656,17.5 L10.3222656,22.5585937 L14.765625,22.5585937 L14.765625,34.7874023 C16.577522,35.0708656 18.422478,35.0708656 20.234375,34.7874023 L20.234375,22.5585937 L24.3120117,22.5585937 Z" id="Path" fill="#FFFFFF"></path>
                    </g>
                </g>
            </g>
        </g>
    </g>
</svg>