<?xml version="1.0" encoding="UTF-8"?>
<svg width="25px" height="25px" viewBox="0 0 25 25" version="1.1" xmlns="http://www.w3.org/2000/svg" xmlns:xlink="http://www.w3.org/1999/xlink">
    <!-- Generator: Sketch 52.6 (67491) - http://www.bohemiancoding.com/sketch -->
    <title>google-icon</title>
    <desc>Created with Sketch.</desc>
    <g id="Main-Mockups" stroke="none" stroke-width="1" fill="none" fill-rule="evenodd">
        <g id="selected-design-subscribe-copy" transform="translate(-1157.000000, -924.000000)">
            <g id="Group" transform="translate(1068.000000, 508.000000)">
                <g id="Mask" transform="translate(1.000000, 0.000000)">
                    <g id="Group-13" transform="translate(88.000000, 416.000000)">
                        <g id="google-icon">
                            <path d="M5.54052734,15.1078125 L4.6703125,18.3564453 L1.48969727,18.4237305 C0.539160156,16.6606934 0,14.6435547 0,12.5 C0,10.4271973 0.504101562,8.47250977 1.39765625,6.75136719 L1.39833984,6.75136719 L4.22998047,7.27050781 L5.47041016,10.0851563 C5.21079102,10.842041 5.06928711,11.654541 5.06928711,12.5 C5.06938477,13.4175781 5.2355957,14.2967285 5.54052734,15.1078125 Z" id="Path" fill="#FBBB00"></path>
                            <path d="M24.7815918,10.1648437 C24.9251465,10.9209961 25,11.7019043 25,12.5 C25,13.3949219 24.9059082,14.2678711 24.7266602,15.1099121 C24.1181641,17.975293 22.5281738,20.4773438 20.3255859,22.2479492 L20.3249023,22.2472656 L16.7583008,22.0652832 L16.2535156,18.9141602 C17.7150391,18.0570313 18.8572266,16.7156738 19.4588867,15.1099121 L12.7748047,15.1099121 L12.7748047,10.1648437 L19.5563965,10.1648437 L24.7815918,10.1648437 Z" id="Path" fill="#518EF8"></path>
                            <path d="M20.3248535,22.2472656 L20.3255371,22.2479492 C18.1833984,23.9697754 15.462207,25 12.5,25 C7.73969727,25 3.60097656,22.3393066 1.48969727,18.4237793 L5.54052734,15.1078613 C6.59614258,17.9251465 9.31386719,19.9306641 12.5,19.9306641 C13.8694824,19.9306641 15.1524902,19.5604492 16.253418,18.9141602 L20.3248535,22.2472656 Z" id="Path" fill="#28B446"></path>
                            <path d="M20.4787109,2.87773438 L16.429248,6.19296875 C15.2898438,5.48076172 13.9429688,5.06933594 12.5,5.06933594 C9.24174805,5.06933594 6.47319336,7.1668457 5.47045898,10.0851563 L1.39833984,6.75136719 L1.39765625,6.75136719 C3.47802734,2.74038086 7.66894531,0 12.5,0 C15.532959,0 18.3138672,1.08037109 20.4787109,2.87773438 Z" id="Path" fill="#F14336"></path>
                        </g>
                    </g>
                </g>
            </g>
        </g>
    </g>
</svg>