<?xml version="1.0" encoding="UTF-8"?>
<svg width="53px" height="80px" viewBox="0 0 53 80" version="1.1" xmlns="http://www.w3.org/2000/svg" xmlns:xlink="http://www.w3.org/1999/xlink">
    <!-- Generator: Sketch 52.6 (67491) - http://www.bohemiancoding.com/sketch -->
    <title>license-icon</title>
    <desc>Created with Sketch.</desc>
    <g id="Main-Mockups" stroke="none" stroke-width="1" fill="none" fill-rule="evenodd">
        <g id="License" transform="translate(-153.000000, -165.000000)">
            <g id="Group-8" transform="translate(118.000000, 141.000000)">
                <g id="license-icon" transform="translate(35.000000, 24.000000)">
                    <path d="M39.7028506,78.8365812 L39.7028506,45.5350427 C39.7028506,44.9620513 39.2351429,44.4977778 38.6586818,44.4977778 L14.4029221,44.4977778 C13.8261169,44.4977778 13.3587532,44.9623932 13.3587532,45.5350427 L13.3587532,78.8365812 C13.3587532,79.6017094 14.1640779,80.1035897 14.8575519,79.7705983 L26.0763442,74.3815385 C26.3633701,74.2434188 26.6982338,74.2434188 26.9856039,74.3815385 L38.2043961,79.7705983 C38.897526,80.1035897 39.7028506,79.6017094 39.7028506,78.8365812 Z" id="Path" fill="#F5585C"></path>
                    <path d="M38.6586818,44.4974359 L14.4029221,44.4974359 C13.8261169,44.4974359 13.3587532,44.9620513 13.3587532,45.5347009 L13.3587532,65.8694017 C13.3587532,60.5011966 17.739513,56.1490598 23.1437922,56.1490598 L29.9181558,56.1490598 C35.3220909,56.1490598 39.7031948,60.5008547 39.7031948,65.8694017 L39.7031948,45.5350427 C39.7028506,44.9620513 39.235487,44.4974359 38.6586818,44.4974359 Z" id="Path" fill="#E34450"></path>
                    <path d="M34.1481753,44.4974359 L18.9134286,44.4974359 L18.9134286,77.8218803 L26.0763442,74.3811966 C26.3633701,74.2430769 26.6982338,74.2430769 26.9856039,74.3811966 L34.1485195,77.8218803 L34.1485195,44.4974359 L34.1481753,44.4974359 Z" id="Path" fill="#E34450"></path>
                    <path d="M23.1437922,56.1494017 L29.9181558,56.1494017 C31.433474,56.1494017 32.8682597,56.4919658 34.1485195,57.1025641 L34.1485195,44.4974359 L18.9137727,44.4974359 L18.9137727,57.1025641 C20.1936883,56.4919658 21.628474,56.1494017 23.1437922,56.1494017 Z" id="Path" fill="#D33548"></path>
                    <path d="M53,26.294359 C53,28.5476923 50.4718312,30.4410256 49.9125779,32.5189744 C49.3340519,34.6694017 50.5533961,37.5613675 49.4569156,39.4441026 C48.3446039,41.3538462 45.2031494,41.7439316 43.6430909,43.2936752 C42.0830325,44.8434188 41.6903506,47.9641026 39.7678961,49.0694017 C37.8726299,50.1586325 34.9614156,48.9470085 32.7966753,49.5217094 C30.7045519,50.077265 28.798961,52.5887179 26.5306299,52.5887179 C24.2622987,52.5887179 22.3563636,50.077265 20.2645844,49.5217094 C18.0998442,48.9470085 15.1886299,50.1586325 13.2933636,49.0690598 C11.3709091,47.9641026 10.9782273,44.8434188 9.41816883,43.2933333 C7.85811039,41.7432479 4.71665584,41.3535043 3.604,39.4437607 C2.50751948,37.5610256 3.72720779,34.6690598 3.14868182,32.5186325 C2.58942857,30.4403419 0.0612597403,28.5473504 0.0612597403,26.2940171 C0.0612597403,24.0406838 2.58942857,22.1473504 3.14868182,20.0694017 C3.72720779,17.9189744 2.50786364,15.0270085 3.60434416,13.1442735 C4.71665584,11.2345299 7.85811039,10.8444444 9.41816883,9.29470085 C10.9785714,7.74495726 11.3709091,4.62393162 13.2933636,3.51931624 C15.1886299,2.43008547 18.0998442,3.6417094 20.2645844,3.06700855 C22.3563636,2.51145299 24.2622987,5.68434189e-14 26.5306299,5.68434189e-14 C28.798961,5.68434189e-14 30.7048961,2.51145299 32.7966753,3.06700855 C34.9614156,3.6417094 37.8726299,2.43008547 39.7678961,3.51965812 C41.6903506,4.62461538 42.0830325,7.74529915 43.6430909,9.29504274 C45.2031494,10.8447863 48.3449481,11.2348718 49.4569156,13.1446154 C50.5533961,15.0273504 49.3337078,17.9193162 49.9125779,20.0697436 C50.4718312,22.1480342 53,24.0410256 53,26.294359 Z" id="Path" fill="#FAB941"></path>
                    <path d="M39.9940065,38.9117949 C39.9940065,38.3138462 40.1292597,37.7473504 40.370513,37.2403419 L24.130487,8.66803419 C24.0176039,8.67760684 23.9036883,8.68376068 23.7883961,8.68376068 C21.6095455,8.68376068 19.8433377,6.92923077 19.8433377,4.76478632 C19.8433377,4.16 19.9813442,3.58735043 20.2277597,3.07589744 C18.0671494,3.62769231 15.177961,2.4365812 13.2933636,3.51965812 C11.3709091,4.62461538 10.9782273,7.74529915 9.41816883,9.29504274 C7.85811039,10.8447863 4.71631169,11.2348718 3.60434416,13.1446154 C2.50786364,15.0273504 3.72755195,17.9193162 3.14868182,20.0697436 C2.58942857,22.1480342 0.0612597403,24.0410256 0.0612597403,26.294359 C0.0612597403,28.5476923 2.58942857,30.4410256 3.14868182,32.5189744 C3.72720779,34.6690598 2.50751948,37.5613675 3.604,39.4441026 C4.71631169,41.3538462 7.85776623,41.7439316 9.41782468,43.2936752 C10.9778831,44.8434188 11.3705649,47.9644444 13.2930195,49.0694017 C15.1882857,50.1586325 18.0995,48.9470085 20.2642403,49.5220513 C22.3563636,50.0776068 24.2619545,52.5890598 26.5302857,52.5890598 C28.7986169,52.5890598 30.7045519,50.0776068 32.7963312,49.5220513 C34.9607273,48.9473504 37.8722857,50.1589744 39.7675519,49.0697436 C41.6900065,47.9647863 42.0826883,44.8441026 43.6427468,43.2940171 C43.8148247,43.1230769 44.0072078,42.9668376 44.2126688,42.8205128 C44.1221558,42.8266667 44.0309545,42.8311111 43.9387208,42.8311111 C41.7602143,42.8311111 39.9940065,41.0762393 39.9940065,38.9117949 Z" id="Path" fill="#F6A221"></path>
                    <ellipse id="Oval" fill="#FCE49A" transform="translate(26.526904, 26.294117) rotate(-30.000728) translate(-26.526904, -26.294117) " cx="26.526904" cy="26.2941169" rx="18.2905254" ry="18.2299615"></ellipse>
                    <path d="M36.3738312,37.3241026 C35.927461,36.5562393 35.8658571,35.6745299 36.123974,34.8933333 L23.8634221,13.7976068 C23.0532792,13.6290598 22.3157532,13.1353846 21.8693831,12.3675214 C21.1067338,11.0553846 21.460526,9.40991453 22.6337532,8.50769231 C20.8296883,8.89811966 19.0548766,9.56717949 17.3702338,10.5333333 C8.60733766,15.5589744 5.60492208,26.6899145 10.6643571,35.3948718 C15.7234481,44.0998291 26.928474,47.0823932 35.6913701,42.0564103 C37.3329935,41.1148718 38.7722532,39.9593162 39.9940065,38.6454701 C38.6497338,39.1223932 37.1130779,38.5958974 36.3738312,37.3241026 Z" id="Path" fill="#FAB941"></path>
                    <ellipse id="Oval" fill="#FAB941" transform="translate(26.526938, 26.294117) rotate(-30.000728) translate(-26.526938, -26.294117) " cx="26.5269385" cy="26.2941169" rx="13.240918" ry="13.1970744"></ellipse>
                    <path d="M21.1793506,29.3637607 C18.130474,24.1179487 19.1288701,17.657094 23.207461,13.5398291 C22.0748442,13.8317949 20.9618442,14.2748718 19.8990909,14.8844444 C13.5552662,18.522735 11.3819221,26.5808547 15.0444286,32.8823932 C18.7069351,39.1842735 26.8186883,41.3432479 33.1621688,37.7049573 C34.2249221,37.0953846 35.1679091,36.3596581 35.9887208,35.5309402 C30.3600519,36.9811966 24.2282273,34.6099145 21.1793506,29.3637607 Z" id="Path" fill="#F6A221"></path>
                </g>
            </g>
        </g>
    </g>
</svg>