<?xml version="1.0" encoding="UTF-8"?>
<svg width="120px" height="120px" viewBox="0 0 120 120" version="1.1" xmlns="http://www.w3.org/2000/svg" xmlns:xlink="http://www.w3.org/1999/xlink">
    <!-- Generator: Sketch 52.6 (67491) - http://www.bohemiancoding.com/sketch -->
    <title>message-sent-icon</title>
    <desc>Created with Sketch.</desc>
    <defs>
        <linearGradient x1="0%" y1="20.1506654%" x2="87.9394932%" y2="82.3847073%" id="linearGradient-1">
            <stop stop-color="#FFCB86" offset="0%"></stop>
            <stop stop-color="#FFCC4E" offset="100%"></stop>
        </linearGradient>
    </defs>
    <g id="Main-Mockups" stroke="none" stroke-width="1" fill="none" fill-rule="evenodd">
        <g id="contact-success" transform="translate(-660.000000, -215.000000)">
            <g id="message-sent-icon" transform="translate(660.000000, 215.000000)">
                <path d="M120,60 C120,76.0408594 113.70375,90.6147656 103.447266,101.377969 C100.094531,104.902031 96.3133594,108.017109 92.191875,110.64 C91.9689844,110.779687 91.7460938,110.919141 91.5232031,111.058828 C89.5223438,112.297969 87.4432031,113.422031 85.2930469,114.42375 C77.6057812,118.001719 69.0367969,120 60,120 C52.6921875,120 45.688125,118.692188 39.2107031,116.299688 C36.9796875,115.476797 34.8124219,114.524062 32.7159375,113.451562 C16.6017187,105.208125 4.704375,89.8921875 1.12171875,71.5982812 C0.671015625,69.3035156 0.350390625,66.9623438 0.1715625,64.5820312 C0.058828125,63.0686719 0,61.5403125 0,60 C0,57.6710156 0.1321875,55.3713281 0.391875,53.1110156 C0.548671875,51.7371094 0.751875,50.3779688 1.00171875,49.0333594 C6.151875,21.1347656 30.6072656,0 60,0 C70.8660938,0 81.05625,2.88726563 89.8457813,7.93710938 C91.0408594,8.62289063 92.2066406,9.35015625 93.3478125,10.1142188 C93.5927344,10.2782813 93.8376562,10.4449219 94.08,10.6139062 C94.0971094,10.62375 94.1167969,10.6359375 94.1339063,10.6507031 C96.0147656,11.9535937 97.8171094,13.3617187 99.5339063,14.8654687 C103.192734,18.07125 106.457109,21.7176563 109.248984,25.719375 C116.025234,35.4367969 120,47.255625 120,60 Z" id="Path" fill="url(#linearGradient-1)"></path>
                <path d="M99.8596875,10.6040625 L99.5339062,14.8652344 L92.191875,110.64 C91.9689844,110.779688 91.7460938,110.919141 91.5232031,111.058828 C89.5223437,112.297969 87.4432031,113.422031 85.2930469,114.42375 L1.12171875,71.5982813 C0.671015625,69.3035156 0.350390625,66.9623438 0.1715625,64.5820312 C0.058828125,63.0686719 0,61.5403125 0,60 C0,57.6710156 0.1321875,55.3713281 0.391875,53.1110156 C0.548671875,51.7371094 0.751875,50.3779688 1.00171875,49.0333594 L89.8457813,7.93710938 L93.5535937,6.22289063 C96.6391406,4.79765625 100.119141,7.21476563 99.8596875,10.6040625 Z" id="Path" fill="#F7F7FC"></path>
                <path d="M94.4566406,10.059375 L26.7058594,84.6154688 L32.0027344,110.137969 C32.7389063,113.685234 37.4896875,114.404297 39.2428125,111.234141 L42.92625,88.1925 L94.4566406,10.059375 Z" id="Path" fill="#EBEBF2"></path>
                <path d="M94.1339062,10.6507031 L47.848125,95.3707031 L58.8588281,100.973906 L40.1510156,115.719141 C39.8521875,115.954219 39.53625,116.147813 39.2107031,116.299453 C36.9796875,115.476562 34.8124219,114.523828 32.7159375,113.451328 C32.6646094,113.294531 32.6228906,113.133047 32.5886719,112.966406 L30.6735937,103.738594 L94.08,10.6139062 L94.4571094,10.0605469 L94.1339062,10.6507031 Z" id="Path" fill="#D0D0D8"></path>
            </g>
        </g>
    </g>
</svg>