<?xml version="1.0" encoding="UTF-8"?>
<svg width="54px" height="55px" viewBox="0 0 54 55" version="1.1" xmlns="http://www.w3.org/2000/svg" xmlns:xlink="http://www.w3.org/1999/xlink">
    <!-- Generator: Sketch 52.6 (67491) - http://www.bohemiancoding.com/sketch -->
    <title>okay-icon</title>
    <desc>Created with Sketch.</desc>
    <defs>
        <linearGradient x1="10.172361%" y1="21.4631274%" x2="89.9086478%" y2="82.7048486%" id="linearGradient-1">
            <stop stop-color="#68E4BC" offset="0%"></stop>
            <stop stop-color="#4AD0D1" offset="100%"></stop>
        </linearGradient>
        <path d="M29.8276464,21.4315872 L23.8813766,25.3952865 L15.2967207,31.1175994 C7.34946275,27.8034668 1.49573864,20.4324798 0.285557656,11.5693359 L10.2479774,4.92848211 L16.312639,0.885475186 C17.0109005,0.419700596 17.9530323,0.613143867 18.4157609,1.31726074 L30.2566082,19.3133621 C30.7193367,20.0174789 30.5271584,20.9641342 29.8276464,21.4315872 Z" id="path-2"></path>
        <path d="M29.8276464,21.4315872 L23.8813766,25.3952865 L10.2479774,4.92848211 L16.312639,0.885475186 C17.0109005,0.419700596 17.9530323,0.613143867 18.4157609,1.31726074 L30.2566082,19.3129426 C30.7193367,20.0174789 30.5271584,20.9641342 29.8276464,21.4315872 Z" id="path-4"></path>
        <filter x="-86.4%" y="-62.6%" width="272.7%" height="241.3%" filterUnits="objectBoundingBox" id="filter-5">
            <feOffset dx="0" dy="2" in="SourceAlpha" result="shadowOffsetOuter1"></feOffset>
            <feGaussianBlur stdDeviation="5.5" in="shadowOffsetOuter1" result="shadowBlurOuter1"></feGaussianBlur>
            <feColorMatrix values="0 0 0 0 0.73229828   0 0 0 0 0.724642558   0 0 0 0 0.820339073  0 0 0 1 0" type="matrix" in="shadowBlurOuter1"></feColorMatrix>
        </filter>
    </defs>
    <g id="Main-Mockups" stroke="none" stroke-width="1" fill="none" fill-rule="evenodd">
        <g id="License" transform="translate(-118.000000, -299.000000)">
            <g id="Group-7" transform="translate(118.000000, 299.000000)">
                <g id="okay-icon">
                    <path d="M49.4202384,30.1544953 C49.4202384,43.8763809 38.3681139,55 24.7363821,55 C21.3922307,55 18.2044065,54.3307113 15.2967207,53.1175994 C7.34946275,49.8038864 1.49573864,42.4316406 0.285557656,33.5693359 C0.131731719,32.4531555 0.0533596838,31.313057 0.0533596838,30.1544953 C0.0533596838,16.4317704 11.1042335,5.30815119 24.7363821,5.30815119 C38.3681139,5.30815119 49.4202384,16.4317704 49.4202384,30.1544953 Z" id="Path" fill="url(#linearGradient-1)"></path>
                    <path d="M24.7363821,5.30815119 C23.4311543,5.30815119 22.150105,5.41095736 20.8999043,5.60733798 C32.7103199,7.46246338 41.7476995,17.7451706 41.7476995,30.1544953 C41.7476995,42.5621414 32.7111537,52.844429 20.9015718,54.7003937 C22.1513556,54.8967742 23.4315711,55 24.7359653,55 C38.3681139,55 49.4202384,43.8763809 49.4202384,30.1544953 C49.4202384,16.4317704 38.3681139,5.30815119 24.7363821,5.30815119 Z" id="Path" fill="#43AFD8" opacity="0.451195126"></path>
                    <path d="M52.5017602,28.3178329 L38.4068831,37.7126312 C37.4026371,38.3823395 36.1862031,38.6479569 34.9972826,38.4566117 C33.805444,38.265686 32.5860919,38.5275269 31.5793447,39.198494 L29.6929965,40.4569245 L19.1294466,24.7829818 L21.7211431,13.5129166 C21.9224926,12.635498 22.0221252,11.7463302 22.0221252,10.8605194 C22.0221252,8.56899259 21.3563797,6.30725863 20.0794992,4.36569214 C19.7655942,3.88816828 19.6155201,3.34812167 19.6155201,2.81478882 C19.6155201,1.90338135 20.0549037,1.00917813 20.8669713,0.467872646 C21.9612617,-0.26184082 23.4115613,-0.1263046 24.3536932,0.793495205 L26.0328557,2.43041992 C27.9529707,4.30568692 29.4341187,6.58882146 30.3641614,9.11407471 L31.274611,11.5814209 L40.650491,5.34591675 C42.1478971,4.34806818 44.1734807,4.78446955 45.1297863,6.32823941 C46.0519084,7.815361 45.5783412,9.78042603 44.1255404,10.7484818 C44.1080318,10.760231 44.1067811,10.7791138 44.1126173,10.7933807 C44.1209548,10.8089066 44.1384634,10.819397 44.1580565,10.8110046 C44.5286561,10.6674958 44.9163475,10.5978394 45.3007041,10.5978394 C45.9143404,10.5978394 46.5225575,10.7757568 47.0428144,11.1143875 C47.4013248,11.3476944 47.7189816,11.6577912 47.969522,12.038803 C48.453511,12.7748108 48.5977489,13.6379623 48.4393373,14.4402694 C48.1908813,15.7041549 47.2783473,16.3554001 47.0990922,16.4779281 C47.0686604,16.4993286 47.060323,16.5417099 47.0815835,16.5736007 C47.0815835,16.57444 47.0828341,16.5756989 47.0836678,16.5756989 C47.1036777,16.6042327 47.1445313,16.6122055 47.1737123,16.5937423 C47.4292552,16.5312195 47.6893837,16.5014267 47.9495122,16.5014267 C48.5844089,16.5014267 49.2159708,16.6831208 49.7529027,17.0276261 C50.1159987,17.2613525 50.4369905,17.5701904 50.6854465,17.9486847 C51.6600945,19.4299316 51.2573956,21.4264679 49.7841681,22.4079513 C49.7479002,22.4327087 49.7116323,22.4574662 49.6753643,22.4809647 C49.6545208,22.4977494 49.6482676,22.5246048 49.6591064,22.5434875 C49.6611907,22.5481034 49.6661932,22.5531388 49.6707788,22.5552368 C49.6870369,22.568245 49.7128829,22.5695037 49.7341434,22.5531388 C50.6491786,22.2392655 51.6450871,22.3819351 52.4463161,22.9043579 C52.8152483,23.1427002 53.1424932,23.4637069 53.401371,23.8573075 C54.3764359,25.3398132 53.9733202,27.3363494 52.5017602,28.3178329 Z" id="Path" fill="#FDD7BD"></path>
                    <g id="Path" transform="translate(0.000000, 22.000000)">
                        <mask id="mask-3" fill="white">
                            <use xlink:href="#path-2"></use>
                        </mask>
                        <use id="Mask" fill="#EBEBF2" xlink:href="#path-2"></use>
                        <g mask="url(#mask-3)">
                            <use fill="black" fill-opacity="1" filter="url(#filter-5)" xlink:href="#path-4"></use>
                            <use fill="#F7F7FC" fill-rule="evenodd" xlink:href="#path-4"></use>
                        </g>
                    </g>
                    <g id="Group" transform="translate(40.339921, 10.527344)" fill="#FAC5AA">
                        <path d="M6.70289343,0.586624199 L2.01266057,3.11313632 C1.34733202,3.47064975 0.522341253,3.28392023 0.0750370553,2.6742172 L3.77269634,0.266036934 C3.7810339,0.281562832 3.79854249,0.292053223 3.81813553,0.283660889 C4.18873518,0.140152031 4.57642658,0.0704956055 4.9607831,0.0704956055 C5.57483631,0.0704956055 6.18263651,0.248413086 6.70289343,0.586624199 Z" id="Path"></path>
                        <path d="M9.41298172,6.50028231 L4.82488271,8.96972656 C4.15955405,9.32849887 3.33456339,9.14218905 2.88684224,8.53248602 L6.58450163,6.12388605 L6.74416373,6.04835516 C6.76417361,6.07688898 6.80502717,6.08486173 6.8342082,6.06639859 C7.08975114,6.00387573 7.3498796,5.97408292 7.61000806,5.97408292 C8.24490484,5.97408292 8.87646675,6.15577703 9.41298172,6.50028231 Z" id="Path"></path>
                        <path d="M12.106812,12.3770142 L8.0656497,14.5531463 C7.40115484,14.9102401 6.57658103,14.7239303 6.12760934,14.1142273 L9.33085786,12.0278931 C9.34753276,12.0409012 9.3733788,12.04216 9.39422248,12.0253753 C10.3092576,11.7119217 11.3051662,11.8545914 12.106812,12.3770142 Z" id="Path"></path>
                    </g>
                </g>
            </g>
        </g>
    </g>
</svg>