<?xml version="1.0" encoding="UTF-8"?>
<svg width="20px" height="11px" viewBox="0 0 20 11" version="1.1" xmlns="http://www.w3.org/2000/svg" xmlns:xlink="http://www.w3.org/1999/xlink">
    <!-- Generator: Sketch 63.1 (92452) - https://sketch.com -->
    <title>sup-logo</title>
    <desc>Created with Sketch.</desc>
    <g id="Landing-page" stroke="none" stroke-width="1" fill="none" fill-rule="evenodd">
        <g id="Group-7-Copy" transform="translate(-10.000000, -14.000000)" fill="#7D7A9E" fill-rule="nonzero">
            <path d="M18.755102,24.0530612 C18.9673469,24.0530612 19.1552721,23.9823129 19.3188776,23.8408163 C19.482483,23.6993197 19.5642857,23.5268707 19.5642857,23.3234694 C19.5642857,23.2085034 19.5377551,23.0935374 19.4846939,22.9785714 L19.4846939,22.9785714 L15.8102041,15.1122449 C15.7306122,14.9353741 15.6090136,14.8005102 15.4454082,14.7076531 C15.2818027,14.6147959 15.1071429,14.5683673 14.9214286,14.5683673 C14.7357143,14.5683673 14.5610544,14.6147959 14.397449,14.7076531 C14.2338435,14.8005102 14.1122449,14.9353741 14.0326531,15.1122449 L14.0326531,15.1122449 L10.3714286,22.9785714 C10.3183673,23.0935374 10.2918367,23.2085034 10.2918367,23.3234694 C10.2918367,23.5268707 10.3758503,23.6993197 10.5438776,23.8408163 C10.7119048,23.9823129 10.897619,24.0530612 11.1010204,24.0530612 C11.2513605,24.0530612 11.3884354,24.0154762 11.5122449,23.9403061 C11.6360544,23.8651361 11.7333333,23.7479592 11.8040816,23.5887755 L11.8040816,23.5887755 L12.6,21.8112245 L17.2693878,21.8112245 L18.0653061,23.5887755 C18.1360544,23.7479592 18.2333333,23.8651361 18.3571429,23.9403061 C18.4809524,24.0154762 18.6136054,24.0530612 18.755102,24.0530612 Z M16.6857143,20.4846939 L13.1836735,20.4846939 L14.9346939,16.544898 L16.6857143,20.4846939 Z M24.3,24 C25.829932,24 27.0171769,23.5909864 27.8617347,22.7729592 C28.7062925,21.954932 29.1285714,20.8030612 29.1285714,19.3173469 C29.1285714,17.8404762 28.7062925,16.6930272 27.8617347,15.875 C27.0171769,15.0569728 25.829932,14.6479592 24.3,14.6479592 L24.3,14.6479592 L21.6734694,14.6479592 C21.4170068,14.6479592 21.2158163,14.7187075 21.069898,14.8602041 C20.9239796,15.0017007 20.8510204,15.2006803 20.8510204,15.4571429 L20.8510204,15.4571429 L20.8510204,23.1908163 C20.8510204,23.4472789 20.9239796,23.6462585 21.069898,23.7877551 C21.2158163,23.9292517 21.4170068,24 21.6734694,24 L21.6734694,24 L24.3,24 Z M24.1938776,22.6071429 L22.5622449,22.6071429 L22.5622449,16.0408163 L24.1938776,16.0408163 C26.3428571,16.0408163 27.4173469,17.1329932 27.4173469,19.3173469 C27.4173469,21.5105442 26.3428571,22.6071429 24.1938776,22.6071429 L24.1938776,22.6071429 Z" id="sup-logo"></path>
        </g>
    </g>
</svg>