<?xml version="1.0" encoding="UTF-8"?>
<svg width="20px" height="35px" viewBox="0 0 20 35" version="1.1" xmlns="http://www.w3.org/2000/svg" xmlns:xlink="http://www.w3.org/1999/xlink">
    <!-- Generator: Sketch 52.6 (67491) - http://www.bohemiancoding.com/sketch -->
    <title>tumblr-icon</title>
    <desc>Created with Sketch.</desc>
    <g id="Main-Mockups" stroke="none" stroke-width="1" fill="none" fill-rule="evenodd">
        <g id="selected-design-share" transform="translate(-881.000000, -387.000000)" fill="#001935">
            <g id="Group-19" transform="translate(316.000000, 240.000000)">
                <g id="Group-13" transform="translate(534.000000, 123.000000)">
                    <path d="M49.1550554,51.8338494 C49.1550554,51.8338494 48.1300862,53.0282244 46.1825956,53.0282244 C44.2351051,53.0282244 43.3639058,51.8338494 43.3639058,50.0683381 C43.3639058,49.3589915 43.3639058,45.0111364 43.3639058,40.063608 L49.6609162,40.063608 L49.6609162,34.000554 L43.3639058,34.000554 C43.3639058,28.6332244 43.3639058,24 43.3639058,24 L38.6221597,24 C37.8811791,28.4877557 34.9609246,32.2248011 31,34.0590199 L31,40.0635085 L35.6253637,40.0635085 C35.6253637,45.8995597 35.6253637,51.1821733 35.6253637,51.5846733 C35.6253637,53.1840341 37.1115445,59 44.6964148,59 C49.1550554,59 51,56.092017 51,56.092017 L49.1550554,51.8338494 Z" id="tumblr-icon"></path>
                </g>
            </g>
        </g>
    </g>
</svg>